<svg width="118" height="118" viewBox="0 0 118 118" fill="none" xmlns="http://www.w3.org/2000/svg">
<path fill-rule="evenodd" clip-rule="evenodd" d="M103.633 39.1476C103.356 39.1313 103.061 39.1248 102.748 39.128H90.3982C80.2838 39.128 71.6318 47.0904 71.6318 57.4689C71.6318 67.8474 80.2887 75.8098 90.3982 75.8098H102.748C103.061 75.8131 103.358 75.8066 103.638 75.7903C105.717 75.6649 107.679 74.7881 109.159 73.3232C110.639 71.8583 111.537 69.9052 111.683 67.8279C111.703 67.5344 111.703 67.2165 111.703 66.923V48.0148C111.703 47.7213 111.703 47.4034 111.683 47.11C111.537 45.0326 110.639 43.0795 109.159 41.6146C107.679 40.1497 105.712 39.2729 103.633 39.1476ZM89.3174 62.3598C91.9193 62.3598 94.0273 60.1687 94.0273 57.4689C94.0273 54.7691 91.9193 52.578 89.3174 52.578C86.7105 52.578 84.6025 54.7691 84.6025 57.4689C84.6025 60.1687 86.7105 62.3598 89.3174 62.3598Z" fill="url(#paint0_linear_1617_24668)"/>
<path fill-rule="evenodd" clip-rule="evenodd" d="M102.744 83.1453C102.913 83.1385 103.081 83.1717 103.235 83.2422C103.389 83.3127 103.524 83.4184 103.629 83.5509C103.735 83.6834 103.807 83.8388 103.841 84.0046C103.875 84.1704 103.87 84.3418 103.825 84.505C102.847 87.9873 101.286 90.961 98.7872 93.4554C95.1239 97.1236 90.4825 98.7424 84.7503 99.5152C79.1747 100.264 72.0584 100.264 63.0689 100.264H52.7393C43.7498 100.264 36.6287 100.264 31.0579 99.5152C25.3258 98.7424 20.6843 97.1187 17.021 93.4603C13.3626 89.797 11.7388 85.1555 10.9661 79.4234C10.2178 73.8477 10.2178 66.7314 10.2178 57.742V57.1942C10.2178 48.2047 10.2178 41.0835 10.9661 35.5079C11.7388 29.7757 13.3626 25.1343 17.021 21.471C20.6843 17.8126 25.3258 16.1888 31.0579 15.416C36.6336 14.6726 43.7498 14.6726 52.7393 14.6726H63.0689C72.0584 14.6726 79.1796 14.6726 84.7503 15.4209C90.4825 16.1937 95.1239 17.8175 98.7872 21.4759C101.286 23.98 102.847 26.9488 103.825 30.4311C103.87 30.5943 103.875 30.7658 103.841 30.9316C103.807 31.0973 103.735 31.2528 103.629 31.3852C103.524 31.5177 103.389 31.6235 103.235 31.6939C103.081 31.7644 102.913 31.7976 102.744 31.7908H90.3993C76.5238 31.7908 64.2966 42.7464 64.2966 57.4681C64.2966 72.1897 76.5238 83.1453 90.3993 83.1453H102.744ZM28.5587 34.2362C27.5858 34.2362 26.6528 34.6227 25.9649 35.3106C25.277 35.9985 24.8905 36.9316 24.8905 37.9044C24.8905 38.8773 25.277 39.8103 25.9649 40.4982C26.6528 41.1861 27.5858 41.5726 28.5587 41.5726H48.1223C49.0952 41.5726 50.0282 41.1861 50.7161 40.4982C51.404 39.8103 51.7905 38.8773 51.7905 37.9044C51.7905 36.9316 51.404 35.9985 50.7161 35.3106C50.0282 34.6227 49.0952 34.2362 48.1223 34.2362H28.5587Z" fill="url(#paint1_linear_1617_24668)"/>
<defs>
<linearGradient id="paint0_linear_1617_24668" x1="15.1094" y1="92.9272" x2="105.875" y2="29.4033" gradientUnits="userSpaceOnUse">
<stop stop-color="#FFA284"/>
<stop offset="1" stop-color="#E2724F"/>
</linearGradient>
<linearGradient id="paint1_linear_1617_24668" x1="14.7308" y1="97.8181" x2="96.7884" y2="31.0083" gradientUnits="userSpaceOnUse">
<stop stop-color="#FFA284"/>
<stop offset="1" stop-color="#E2724F"/>
</linearGradient>
</defs>
</svg>
