<svg width="118" height="118" viewBox="0 0 118 118" fill="none" xmlns="http://www.w3.org/2000/svg">
<path d="M23.4498 13.45H94.368C96.9623 13.45 99.4503 14.4805 101.285 16.315C103.119 18.1494 104.15 20.6375 104.15 23.2318V94.15C104.15 96.7443 103.119 99.2323 101.285 101.067C99.4503 102.901 96.9623 103.932 94.368 103.932H23.4498C20.8555 103.932 18.3674 102.901 16.533 101.067C14.6985 99.2323 13.668 96.7443 13.668 94.15V23.2318C13.668 20.6375 14.6985 18.1494 16.533 16.315C18.3674 14.4805 20.8555 13.45 23.4498 13.45Z" stroke="url(#paint0_linear_1617_24694)" stroke-width="7.33636" stroke-linecap="round" stroke-linejoin="round"/>
<path d="M65.9343 60.6178C65.9343 59.1586 66.514 57.759 67.5459 56.7271C68.5777 55.6953 69.9773 55.1156 71.4366 55.1156M65.9343 55.1156V69.6954M31.3018 47.6863H45.884L31.3018 69.6954H45.884M59.7815 66.9198C59.3004 67.7631 58.6046 68.4641 57.765 68.9516C56.9253 69.4391 55.9716 69.6957 55.0007 69.6954C53.5414 69.6954 52.1418 69.1157 51.11 68.0838C50.0781 67.0519 49.4984 65.6524 49.4984 64.1931V60.6178C49.4984 59.1586 50.0781 57.759 51.11 56.7271C52.1418 55.6953 53.5414 55.1156 55.0007 55.1156C56.4599 55.1156 57.8595 55.6953 58.8914 56.7271C59.9232 57.759 60.5029 59.1586 60.5029 60.6178V62.403H49.4984M75.5156 60.6178C75.5156 59.1586 76.0953 57.759 77.1272 56.7271C78.159 55.6953 79.5586 55.1156 81.0179 55.1156C82.4771 55.1156 83.8767 55.6953 84.9085 56.7271C85.9404 57.759 86.5201 59.1586 86.5201 60.6178V64.1931C86.5201 65.6524 85.9404 67.0519 84.9085 68.0838C83.8767 69.1157 82.4771 69.6954 81.0179 69.6954C79.5586 69.6954 78.159 69.1157 77.1272 68.0838C76.0953 67.0519 75.5156 65.6524 75.5156 64.1931V60.6178Z" stroke="url(#paint1_linear_1617_24694)" stroke-width="4.89091" stroke-linecap="round" stroke-linejoin="round"/>
<defs>
<linearGradient id="paint0_linear_1617_24694" x1="14.8907" y1="102.709" x2="102.927" y2="14.6727" gradientUnits="userSpaceOnUse">
<stop stop-color="#59E5D8"/>
<stop offset="1" stop-color="#26A69A"/>
</linearGradient>
<linearGradient id="paint1_linear_1617_24694" x1="17.3359" y1="102.709" x2="102.927" y2="14.6726" gradientUnits="userSpaceOnUse">
<stop stop-color="#59E5D8"/>
<stop offset="1" stop-color="#26A69A"/>
</linearGradient>
</defs>
</svg>
