<svg width="118" height="118" viewBox="0 0 118 118" fill="none" xmlns="http://www.w3.org/2000/svg">
<g clip-path="url(#clip0_1617_24676)">
<path d="M59.1274 0.418213C74.6932 0.418213 89.6215 6.6017 100.628 17.6084C111.635 28.6151 117.818 43.5433 117.818 59.1091C117.818 74.6749 111.635 89.6032 100.628 100.61C89.6215 111.617 74.6932 117.8 59.1274 117.8C43.5616 117.8 28.6334 111.617 17.6267 100.61C6.62001 89.6032 0.436523 74.6749 0.436523 59.1091C0.436523 43.5433 6.62001 28.6151 17.6267 17.6084C28.6334 6.6017 43.5616 0.418213 59.1274 0.418213ZM11.4411 59.1091C11.4411 71.7563 16.4652 83.8856 25.4081 92.8285C34.351 101.771 46.4802 106.795 59.1274 106.795C71.7746 106.795 83.9039 101.771 92.8468 92.8285C101.79 83.8856 106.814 71.7563 106.814 59.1091C106.814 46.4619 101.79 34.3327 92.8468 25.3898C83.9039 16.4468 71.7746 11.4228 59.1274 11.4228C46.4802 11.4228 34.351 16.4468 25.4081 25.3898C16.4652 34.3327 11.4411 46.4619 11.4411 59.1091ZM83.1907 42.8224L42.8407 83.1724C42.1682 83.8967 41.3127 84.4261 40.3645 84.705C39.4163 84.9839 38.4104 85.0019 37.4528 84.757C36.4953 84.5122 35.6215 84.0136 34.9235 83.3138C34.2255 82.614 33.7292 81.739 33.4868 80.7807C33.2425 79.8242 33.26 78.8196 33.5375 77.8721C33.815 76.9247 34.3423 76.0694 35.0642 75.3959L75.4142 35.0458C76.457 34.0727 77.837 33.5426 79.2631 33.5672C80.6892 33.5919 82.0501 34.1694 83.0587 35.1779C84.0672 36.1865 84.6447 37.5473 84.6693 38.9735C84.6939 40.3996 84.1638 41.7796 83.1907 42.8224Z" fill="url(#paint0_linear_1617_24676)"/>
</g>
<defs>
<linearGradient id="paint0_linear_1617_24676" x1="-4.45439" y1="117.8" x2="117.818" y2="0.418215" gradientUnits="userSpaceOnUse">
<stop stop-color="#FFC072"/>
<stop offset="1" stop-color="#E49532"/>
</linearGradient>
<clipPath id="clip0_1617_24676">
<rect width="117.382" height="117.382" fill="white" transform="translate(0.436523 0.417969)"/>
</clipPath>
</defs>
</svg>
