<svg width="118" height="118" viewBox="0 0 118 118" fill="none" xmlns="http://www.w3.org/2000/svg">
<path fill-rule="evenodd" clip-rule="evenodd" d="M64.9326 7.06859C68.0236 3.36128 74.0443 5.89477 73.5553 10.6976L70.1023 44.4351H98.0343C98.9636 44.4355 99.8736 44.7006 100.658 45.1994C101.442 45.6983 102.068 46.4102 102.462 47.2518C102.856 48.0935 103.002 49.03 102.883 49.9517C102.764 50.8734 102.385 51.7421 101.79 52.4562L52.8814 111.147C49.7903 114.854 43.7696 112.321 44.2587 107.518L47.7117 73.7806H19.7797C18.8504 73.7802 17.9404 73.5151 17.1562 73.0163C16.3721 72.5174 15.7464 71.8055 15.3522 70.9639C14.9581 70.1223 14.8119 69.1858 14.9308 68.264C15.0497 67.3423 15.4287 66.4736 16.0235 65.7595L64.9326 7.06859Z" fill="url(#paint0_linear_1617_24680)"/>
<defs>
<linearGradient id="paint0_linear_1617_24680" x1="24.6724" y1="120.245" x2="90.6997" y2="5.30876" gradientUnits="userSpaceOnUse">
<stop stop-color="#FF9D66"/>
<stop offset="1" stop-color="#EC6D26"/>
</linearGradient>
</defs>
</svg>
