<svg width="118" height="118" viewBox="0 0 118 118" fill="none" xmlns="http://www.w3.org/2000/svg">
<path fill-rule="evenodd" clip-rule="evenodd" d="M31.047 4.67558C34.9805 3.29117 39.0504 2.32991 43.1876 1.80811C43.4756 1.77347 43.7676 1.80072 44.0442 1.88802C44.3207 1.97532 44.5755 2.12066 44.7914 2.31433C45.0073 2.508 45.1793 2.74552 45.296 3.01103C45.4128 3.27653 45.4714 3.5639 45.4682 3.8539V31.8579C45.4682 32.864 44.7471 33.7108 43.7745 33.9707C40.5214 34.8427 37.6539 36.3938 35.3314 38.7079C31.483 42.5564 29.7474 47.9392 29.7474 54.0765C29.7474 60.2223 31.483 65.6051 35.3314 69.4536C39.1799 73.302 44.571 75.0376 50.7084 75.0376C52.0667 75.0376 53.3887 74.9538 54.6743 74.7861C55.0047 74.7392 55.3415 74.7661 55.6604 74.8646C55.9793 74.9632 56.2724 75.1311 56.5188 75.3562C62.6311 81.0408 71.812 86.4656 83.0304 89.7271C83.691 89.9198 84.3831 89.9805 85.0672 89.9057C85.7513 89.8309 86.4139 89.6221 87.0173 89.2912C87.6207 88.9603 88.153 88.5138 88.5838 87.9772C89.0147 87.4406 89.3356 86.8243 89.5283 86.1637C89.721 85.5031 89.7816 84.811 89.7068 84.1269C89.632 83.4428 89.4232 82.7801 89.0924 82.1768C88.7615 81.5734 88.315 81.0411 87.7784 80.6102C87.2417 80.1794 86.6255 79.8585 85.9649 79.6658C77.6643 77.2511 70.8813 73.5452 66.0938 69.7638C66.0711 69.7453 66.0525 69.7223 66.0392 69.6963C66.0259 69.6702 66.0183 69.6416 66.0167 69.6124C66.0151 69.5832 66.0197 69.5539 66.0301 69.5266C66.0405 69.4992 66.0565 69.4744 66.0771 69.4536C69.9339 65.6051 71.6695 60.2223 71.6695 54.0765C71.6695 47.9392 69.9255 42.5564 66.0771 38.7079C63.737 36.4066 60.8253 34.7713 57.6423 33.9707C57.166 33.8527 56.7418 33.5809 56.4356 33.1974C56.1294 32.8139 55.9583 32.3401 55.9487 31.8495V3.8036C55.9487 2.57947 56.9884 1.62365 58.2041 1.74941C62.3214 2.20206 66.39 3.0214 70.3615 4.19766C72.8236 4.92752 75.2351 5.81819 77.5805 6.86391L78.0165 7.06513L78.1422 7.13221H78.1506C89.327 12.6492 97.4767 22.6518 99.6315 38.1629C99.8076 39.4457 100.696 41.3993 102.424 44.1159C103.656 46.0527 105.09 48.0398 106.599 50.1275L108.251 52.4081C110.238 55.2001 112.317 58.252 113.575 61.1027C114.732 63.727 115.889 67.7515 113.441 71.2395C112.44 72.6702 111.111 73.8396 109.564 74.6494C108.017 75.4592 106.299 75.8856 104.553 75.8928L104.151 75.9012C103.604 75.9143 103.083 76.1409 102.701 76.5326C102.319 76.9243 102.105 77.45 102.105 77.9973V83.4723C102.105 87.9197 100.338 92.1849 97.1934 95.3297C94.0487 98.4744 89.7834 100.241 85.3361 100.241H81.2026C79.2993 100.241 78.1003 101.381 77.8404 102.606V112.709C77.8404 113.821 77.3987 114.887 76.6125 115.673C75.8263 116.459 74.76 116.901 73.6482 116.901H23.174C22.0622 116.901 20.9959 116.459 20.2097 115.673C19.4235 114.887 18.9818 113.821 18.9818 112.709L18.9986 105.766C19.0153 99.7465 17.6822 93.9696 14.689 89.1318L13.3307 86.9519C10.7315 82.7848 8.13237 78.6429 6.18719 73.5871C3.85632 67.5252 2.49805 60.2978 2.49805 49.8927C2.49805 30.2229 9.59126 15.8688 23.4004 8.11319L23.501 8.05449L23.9286 7.81135C24.2919 7.60453 24.8034 7.33902 25.463 7.01483C26.7793 6.36084 28.6658 5.5224 31.047 4.67558Z" fill="url(#paint0_linear_1617_24686)"/>
<defs>
<linearGradient id="paint0_linear_1617_24686" x1="19.5637" y1="118" x2="97.8182" y2="10.4001" gradientUnits="userSpaceOnUse">
<stop stop-color="#8B68E0"/>
<stop offset="1" stop-color="#552FAF"/>
</linearGradient>
</defs>
</svg>
