<svg width="118" height="118" viewBox="0 0 118 118" fill="none" xmlns="http://www.w3.org/2000/svg">
<path d="M59.1272 59.309C56.2252 59.309 53.3883 60.1695 50.9754 61.7818C48.5625 63.3941 46.6819 65.6856 45.5713 68.3667C44.4608 71.0478 44.1702 73.998 44.7364 76.8442C45.3025 79.6905 46.6999 82.3049 48.752 84.3569C50.804 86.4089 53.4184 87.8064 56.2646 88.3725C59.1109 88.9387 62.0611 88.6481 64.7422 87.5376C67.4232 86.427 69.7148 84.5464 71.3271 82.1334C72.9393 79.7205 73.7999 76.8837 73.7999 73.9817C73.7999 70.0903 72.254 66.3582 69.5023 63.6065C66.7507 60.8549 63.0186 59.309 59.1272 59.309ZM59.1272 78.8726C58.1598 78.8726 57.2142 78.5858 56.4099 78.0484C55.6056 77.5109 54.9787 76.7471 54.6085 75.8534C54.2384 74.9597 54.1415 73.9763 54.3302 73.0276C54.5189 72.0788 54.9847 71.2073 55.6688 70.5233C56.3528 69.8393 57.2242 69.3735 58.173 69.1848C59.1217 68.9961 60.1051 69.0929 60.9988 69.4631C61.8925 69.8333 62.6564 70.4602 63.1938 71.2645C63.7312 72.0688 64.0181 73.0144 64.0181 73.9817C64.0181 75.2789 63.5028 76.5229 62.5855 77.4401C61.6683 78.3573 60.4243 78.8726 59.1272 78.8726ZM55.6546 48.1088C56.1197 48.5541 56.6682 48.9031 57.2686 49.1359C57.854 49.3947 58.4871 49.5283 59.1272 49.5283C59.7672 49.5283 60.4003 49.3947 60.9857 49.1359C61.5861 48.9031 62.1346 48.5541 62.5997 48.1088L73.7999 37.1043C74.7468 36.1573 75.2788 34.873 75.2788 33.5339C75.2788 32.1948 74.7468 30.9105 73.7999 29.9635C72.853 29.0166 71.5687 28.4846 70.2295 28.4846C68.8904 28.4846 67.6061 29.0166 66.6591 29.9635L64.0181 32.8492V15.2908C64.0181 13.9937 63.5028 12.7496 62.5855 11.8324C61.6683 10.9152 60.4243 10.3999 59.1272 10.3999C57.83 10.3999 56.586 10.9152 55.6688 11.8324C54.7515 12.7496 54.2362 13.9937 54.2362 15.2908V32.8492L51.5951 29.9635C50.6482 29.0166 49.3639 28.4846 48.0248 28.4846C46.6856 28.4846 45.4013 29.0166 44.4544 29.9635C43.5075 30.9105 42.9755 32.1948 42.9755 33.5339C42.9755 34.873 43.5075 36.1573 44.4544 37.1043L55.6546 48.1088ZM93.3635 73.9817C93.3635 73.0144 93.0767 72.0688 92.5393 71.2645C92.0018 70.4602 91.238 69.8333 90.3443 69.4631C89.4506 69.0929 88.4672 68.9961 87.5184 69.1848C86.5697 69.3735 85.6982 69.8393 85.0142 70.5233C84.3302 71.2073 83.8644 72.0788 83.6757 73.0276C83.487 73.9763 83.5838 74.9597 83.954 75.8534C84.3242 76.7471 84.951 77.5109 85.7554 78.0484C86.5597 78.5858 87.5053 78.8726 88.4726 78.8726C89.7698 78.8726 91.0138 78.3573 91.931 77.4401C92.8482 76.5229 93.3635 75.2789 93.3635 73.9817ZM98.2544 39.7454H83.5817C82.2845 39.7454 81.0405 40.2606 80.1233 41.1779C79.2061 42.0951 78.6908 43.3391 78.6908 44.6363C78.6908 45.9334 79.2061 47.1774 80.1233 48.0947C81.0405 49.0119 82.2845 49.5272 83.5817 49.5272H98.2544C99.5516 49.5272 100.796 50.0425 101.713 50.9597C102.63 51.8769 103.145 53.1209 103.145 54.4181V93.5454C103.145 94.8425 102.63 96.0865 101.713 97.0038C100.796 97.921 99.5516 98.4363 98.2544 98.4363H19.9999C18.7027 98.4363 17.4587 97.921 16.5415 97.0038C15.6243 96.0865 15.109 94.8425 15.109 93.5454V54.4181C15.109 53.1209 15.6243 51.8769 16.5415 50.9597C17.4587 50.0425 18.7027 49.5272 19.9999 49.5272H34.6726C35.9698 49.5272 37.2138 49.0119 38.131 48.0947C39.0482 47.1774 39.5635 45.9334 39.5635 44.6363C39.5635 43.3391 39.0482 42.0951 38.131 41.1779C37.2138 40.2606 35.9698 39.7454 34.6726 39.7454H19.9999C16.1084 39.7454 12.3764 41.2912 9.62469 44.0429C6.87302 46.7946 5.32715 50.5266 5.32715 54.4181V93.5454C5.32715 97.4368 6.87302 101.169 9.62469 103.921C12.3764 106.672 16.1084 108.218 19.9999 108.218H98.2544C102.146 108.218 105.878 106.672 108.63 103.921C111.381 101.169 112.927 97.4368 112.927 93.5454V54.4181C112.927 50.5266 111.381 46.7946 108.63 44.0429C105.878 41.2912 102.146 39.7454 98.2544 39.7454ZM24.8908 73.9817C24.8908 74.9491 25.1776 75.8947 25.7151 76.699C26.2525 77.5033 27.0163 78.1301 27.91 78.5003C28.8037 78.8705 29.7871 78.9674 30.7359 78.7787C31.6846 78.5899 32.5561 78.1241 33.2401 77.4401C33.9241 76.7561 34.3899 75.8846 34.5786 74.9359C34.7673 73.9871 34.6705 73.0037 34.3003 72.1101C33.9301 71.2164 33.3032 70.4525 32.4989 69.9151C31.6946 69.3777 30.749 69.0908 29.7817 69.0908C28.4845 69.0908 27.2405 69.6061 26.3233 70.5233C25.4061 71.4406 24.8908 72.6846 24.8908 73.9817Z" fill="url(#paint0_linear_1617_24688)"/>
<defs>
<linearGradient id="paint0_linear_1617_24688" x1="5.32715" y1="108.218" x2="112.927" y2="34.8545" gradientUnits="userSpaceOnUse">
<stop stop-color="#FFC072"/>
<stop offset="1" stop-color="#E49532"/>
</linearGradient>
</defs>
</svg>
