<svg width="118" height="118" viewBox="0 0 118 118" fill="none" xmlns="http://www.w3.org/2000/svg">
<path d="M29.0468 17.7355C29.659 17.0058 29.9634 16.0666 29.8956 15.1165C29.8279 14.1664 29.3931 13.28 28.6835 12.6446C27.9738 12.0093 27.0448 11.6749 26.0931 11.7123C25.1413 11.7496 24.2414 12.1556 23.5836 12.8446C17.5707 19.5435 13.5877 27.8148 12.0998 36.6926C11.9617 37.6418 12.2008 38.6072 12.7659 39.3821C13.331 40.1571 14.1772 40.6798 15.1231 40.8385C16.069 40.9971 17.0394 40.7789 17.8264 40.2307C18.6134 39.6825 19.1544 38.8478 19.3334 37.9056C20.591 30.3965 23.9601 23.4006 29.0468 17.7355ZM94.6681 12.8446C94.3478 12.4823 93.9592 12.187 93.5243 11.9755C93.0895 11.764 92.6172 11.6405 92.1345 11.6122C91.6519 11.5839 91.1684 11.6514 90.7118 11.8106C90.2553 11.9698 89.8347 12.2177 89.4744 12.5401C89.114 12.8624 88.8209 13.2528 88.6119 13.6888C88.403 14.1249 88.2823 14.5979 88.2568 15.0807C88.2313 15.5636 88.3015 16.0467 88.4634 16.5023C88.6253 16.9579 88.8756 17.377 89.2001 17.7355C94.2885 23.4 97.6593 30.396 98.9183 37.9056C99.0791 38.8655 99.6147 39.7222 100.407 40.2872C100.8 40.5669 101.243 40.7667 101.713 40.875C102.182 40.9833 102.669 40.998 103.144 40.9184C103.619 40.8387 104.074 40.6663 104.483 40.4108C104.892 40.1553 105.246 39.8219 105.526 39.4295C105.805 39.0371 106.005 38.5934 106.113 38.1238C106.222 37.6543 106.236 37.1679 106.157 36.6926C104.666 27.8137 100.685 19.5423 94.6681 12.8446Z" fill="url(#paint0_linear_1617_24690)"/>
<path fill-rule="evenodd" clip-rule="evenodd" d="M59.1238 11.6226C50.368 11.6226 41.9709 15.1008 35.7796 21.292C29.5884 27.4833 26.1102 35.8804 26.1102 44.6362V48.3044C26.1238 58.2776 22.43 67.8999 15.7463 75.3022C15.3449 75.7475 15.0587 76.2845 14.9129 76.8661C14.7671 77.4477 14.766 78.0561 14.9098 78.6382C15.0537 79.2203 15.338 79.7582 15.7379 80.2049C16.1378 80.6516 16.6411 80.9935 17.2038 81.2006C24.7554 83.9884 32.6591 86.0426 40.8318 87.28C40.7992 87.7365 40.7829 88.1946 40.7829 88.6544C40.7871 91.118 41.2876 93.5555 42.2545 95.8214C43.2214 98.0874 44.6349 100.135 46.4106 101.843C48.1863 103.551 50.2879 104.883 52.5899 105.761C54.8919 106.638 57.347 107.043 59.8089 106.951C62.2708 106.859 64.6889 106.272 66.919 105.225C69.149 104.178 71.1452 102.692 72.7885 100.857C74.4318 99.0214 75.6884 96.8736 76.4834 94.5418C77.2784 92.21 77.5955 89.742 77.4158 87.2849C85.476 86.0624 93.391 84.0238 101.039 81.2006C101.602 80.9935 102.105 80.6516 102.505 80.2049C102.905 79.7582 103.189 79.2203 103.333 78.6382C103.477 78.0561 103.476 77.4477 103.33 76.8661C103.184 76.2845 102.898 75.7475 102.496 75.3022C95.8144 67.8992 92.1224 58.277 92.1374 48.3044V44.6362C92.1374 35.8804 88.6592 27.4833 82.468 21.292C76.2767 15.1008 67.8796 11.6226 59.1238 11.6226ZM48.1193 88.6544L48.129 88.1653C55.444 88.8257 62.8036 88.8257 70.1186 88.1653L70.1283 88.6544C70.1283 91.573 68.9689 94.372 66.9052 96.4358C64.8414 98.4995 62.0424 99.6589 59.1238 99.6589C56.2052 99.6589 53.4062 98.4995 51.3424 96.4358C49.2787 94.372 48.1193 91.573 48.1193 88.6544Z" fill="url(#paint1_linear_1617_24690)"/>
<defs>
<linearGradient id="paint0_linear_1617_24690" x1="15.1088" y1="103.327" x2="100.7" y2="10.3999" gradientUnits="userSpaceOnUse">
<stop stop-color="#FFA284"/>
<stop offset="1" stop-color="#CF562E"/>
</linearGradient>
<linearGradient id="paint1_linear_1617_24690" x1="15.1084" y1="108.218" x2="103.145" y2="10.3998" gradientUnits="userSpaceOnUse">
<stop stop-color="#FFA284"/>
<stop offset="1" stop-color="#CF562E"/>
</linearGradient>
</defs>
</svg>
