<svg width="2102" height="392" viewBox="0 0 2102 392" fill="none" xmlns="http://www.w3.org/2000/svg">
<g clip-path="url(#clip0_6428_38238)">
<path fill-rule="evenodd" clip-rule="evenodd" d="M52.7189 19.0629L0.712257 237.507C-4.39405 258.958 18.9897 275.893 37.8253 264.383L90.6082 232.138L324.945 87.642C336.365 80.5986 340.113 65.7713 333.404 54.1632C326.431 42.0986 310.87 38.1364 298.962 45.3948L114.699 157.705C95.8607 169.188 72.5035 152.256 77.6072 130.815L106.531 9.32842C106.701 8.61452 106.578 7.85816 106.193 7.23185C105.749 6.51264 105.039 6.00044 104.215 5.80405L82.6151 0.676741C80.6853 0.220273 78.7529 0 76.8523 0C65.6136 0 55.4303 7.66974 52.7189 19.0629Z" fill="url(#paint0_linear_6428_38238)"/>
<path fill-rule="evenodd" clip-rule="evenodd" d="M349.174 95.6165L296.391 127.861L62.0541 272.358C50.6347 279.398 46.8867 294.228 53.5958 305.836C60.5708 317.901 76.129 321.863 88.0375 314.605L272.3 202.295C291.139 190.812 314.496 207.743 309.392 229.184L280.469 350.671C280.299 351.385 280.421 352.141 280.806 352.768C281.25 353.487 281.963 353.999 282.784 354.195L304.384 359.323C317.726 362.489 331.109 354.257 334.28 340.939L386.287 122.495C390.253 105.834 377.031 91.8984 362.103 91.8984C357.81 91.8984 353.379 93.0502 349.171 95.6192L349.174 95.6165Z" fill="url(#paint1_linear_6428_38238)"/>
</g>
<g clip-path="url(#clip1_6428_38238)">
<path d="M504.086 301.297V126.313H478.003V74.5369H531.683V110.442H547.562C555.624 97.5944 566.399 87.7113 579.882 80.7762C593.362 73.8475 609.682 70.3848 628.837 70.3848C659.082 70.3848 682.707 78.886 699.717 95.8916C716.73 112.9 725.237 135.64 725.237 164.111V301.3H673.826V173.181C673.826 154.536 668.847 140.301 658.894 130.475C648.935 120.646 634.258 115.734 614.852 115.734C595.443 115.734 580.702 120.646 570.622 130.475C560.54 140.298 555.503 154.536 555.503 173.181V301.3H504.092L504.086 301.297Z" fill="white"/>
<path d="M885.886 261.237C907.303 261.237 923.878 254.687 935.597 241.582C947.316 228.484 953.176 210.468 953.176 187.538C953.176 164.613 947.316 146.722 935.597 133.871C923.878 121.021 907.303 114.597 885.886 114.597C864.717 114.597 848.209 121.084 836.362 134.059C824.513 147.039 818.596 164.861 818.596 187.534C818.596 210.465 824.516 228.481 836.362 241.579C848.206 254.683 864.717 261.234 885.886 261.234V261.237ZM885.886 305.831C861.939 305.831 841.091 300.983 823.325 291.281C805.558 281.585 791.758 267.912 781.929 250.277C772.098 232.642 767.185 211.856 767.185 187.916C767.185 163.981 772.034 143.195 781.739 125.557C791.437 107.926 805.234 94.2559 823.134 84.5539C841.024 74.8581 862.07 70.0039 886.264 70.0039C910.707 70.0039 931.752 74.7914 949.395 84.3632C967.03 93.9414 980.64 107.548 990.221 125.179C999.795 142.82 1004.59 163.73 1004.59 187.919C1004.59 211.859 999.732 232.706 990.03 250.468C980.329 268.229 966.652 281.899 949.016 291.471C931.371 301.053 910.329 305.834 885.886 305.834V305.831Z" fill="white"/>
<path d="M1091.91 301.297L1019.33 74.5371H1072.25L1121.78 238.183H1123.67L1181.51 74.5371H1232.16L1290.38 238.183H1292.27L1341.79 74.5371H1393.96L1321.75 301.297H1265.81L1207.21 139.542H1205.7L1147.86 301.297H1091.91Z" fill="white"/>
<path d="M1527.4 261.237C1548.82 261.237 1565.39 254.687 1577.11 241.582C1588.83 228.484 1594.69 210.468 1594.69 187.538C1594.69 164.613 1588.83 146.722 1577.11 133.871C1565.39 121.021 1548.82 114.597 1527.4 114.597C1506.23 114.597 1489.72 121.084 1477.88 134.059C1466.03 147.039 1460.11 164.861 1460.11 187.534C1460.11 210.465 1466.03 228.481 1477.88 241.579C1489.72 254.683 1506.23 261.234 1527.4 261.234V261.237ZM1527.4 305.831C1503.45 305.831 1482.6 300.983 1464.83 291.281C1447.07 281.585 1433.27 267.912 1423.44 250.277C1413.61 232.642 1408.7 211.856 1408.7 187.916C1408.7 163.981 1413.55 143.195 1423.25 125.557C1432.95 107.926 1446.75 94.2559 1464.65 84.5539C1482.54 74.8581 1503.59 70.0039 1527.78 70.0039C1552.22 70.0039 1573.26 74.7914 1590.91 84.3632C1608.55 93.9414 1622.15 107.548 1631.74 125.179C1641.31 142.82 1646.1 163.73 1646.1 187.919C1646.1 211.859 1641.25 232.706 1631.55 250.468C1621.84 268.229 1608.17 281.899 1590.53 291.471C1572.89 301.053 1551.84 305.834 1527.4 305.834L1527.4 305.831Z" fill="white"/>
<path d="M1706.2 301.296V126.313H1680.12V74.5366H1733.8V117.999H1749.67C1755.73 103.138 1765.36 91.7995 1778.59 83.9877C1791.83 76.179 1807.01 72.2715 1824.15 72.2715H1843.05V116.49H1821.88C1800.45 116.49 1784.26 122.666 1773.3 135.008C1762.34 147.356 1756.86 163.86 1756.86 184.519V301.3H1706.2V301.296Z" fill="white"/>
<path d="M1881.23 391.998V350.801H1933.78L1954.57 300.915L1854.77 74.5332H1908.45L1979.9 240.822H1981.79L2050.6 74.5332H2102.01L2005.23 301.293L1984.44 350.423C1978.89 363.521 1972.91 373.725 1966.48 381.035C1960.06 388.339 1949.53 391.995 1934.92 391.995H1881.24L1881.23 391.998Z" fill="white"/>
<path d="M504.085 301.297V126.313H478V74.5369H531.68V110.442H547.559C555.624 97.5944 566.396 87.7113 579.879 80.7762C593.358 73.8475 609.679 70.3848 628.833 70.3848C659.075 70.3848 682.704 78.886 699.714 95.8916C716.727 112.9 725.23 135.64 725.23 164.111V301.3H673.819V173.181C673.819 154.536 668.84 140.301 658.888 130.475C648.932 120.646 634.251 115.734 614.849 115.734C595.439 115.734 580.698 120.646 570.619 130.475C560.536 140.298 555.5 154.536 555.5 173.181V301.3H504.088L504.085 301.297Z" fill="white"/>
<path d="M885.886 261.237C907.303 261.237 923.878 254.687 935.597 241.582C947.316 228.484 953.176 210.468 953.176 187.538C953.176 164.613 947.313 146.722 935.597 133.871C923.878 121.021 907.303 114.597 885.886 114.597C864.717 114.597 848.209 121.084 836.362 134.059C824.513 147.039 818.596 164.861 818.596 187.534C818.596 210.465 824.516 228.481 836.362 241.579C848.209 254.683 864.717 261.234 885.886 261.234V261.237ZM885.886 305.831C861.939 305.831 841.091 300.983 823.325 291.281C805.558 281.585 791.758 267.912 781.929 250.277C772.098 232.642 767.185 211.856 767.185 187.916C767.185 163.981 772.034 143.195 781.739 125.557C791.437 107.926 805.237 94.2559 823.137 84.5539C841.024 74.8581 862.073 70.0039 886.267 70.0039C910.71 70.0039 931.755 74.7914 949.398 84.3632C967.034 93.9414 980.643 107.548 990.224 125.179C999.798 142.82 1004.59 163.73 1004.59 187.919C1004.59 211.859 999.732 232.706 990.033 250.468C980.329 268.229 966.656 281.899 949.016 291.471C931.374 301.053 910.329 305.834 885.886 305.834V305.831Z" fill="white"/>
<path d="M1091.91 301.297L1019.33 74.5371H1072.25L1121.78 238.183H1123.67L1181.51 74.5371H1232.16L1290.38 238.183H1292.27L1341.79 74.5371H1393.96L1321.75 301.297H1265.81L1207.21 139.542H1205.7L1147.86 301.297H1091.92H1091.91Z" fill="white"/>
<path d="M1527.4 261.237C1548.82 261.237 1565.39 254.687 1577.11 241.582C1588.83 228.484 1594.69 210.468 1594.69 187.538C1594.69 164.613 1588.83 146.722 1577.11 133.871C1565.39 121.021 1548.82 114.597 1527.4 114.597C1506.23 114.597 1489.72 121.084 1477.88 134.059C1466.03 147.039 1460.11 164.861 1460.11 187.534C1460.11 210.465 1466.03 228.481 1477.88 241.579C1489.72 254.683 1506.23 261.234 1527.4 261.234V261.237ZM1527.4 305.831C1503.45 305.831 1482.6 300.983 1464.83 291.281C1447.07 281.585 1433.27 267.912 1423.44 250.277C1413.61 232.642 1408.7 211.856 1408.7 187.916C1408.7 163.981 1413.55 143.195 1423.25 125.557C1432.95 107.926 1446.75 94.2559 1464.65 84.5539C1482.54 74.8581 1503.59 70.0039 1527.78 70.0039C1552.22 70.0039 1573.26 74.7914 1590.91 84.3632C1608.55 93.9414 1622.15 107.548 1631.74 125.179C1641.31 142.82 1646.1 163.73 1646.1 187.919C1646.1 211.859 1641.25 232.706 1631.55 250.468C1621.84 268.229 1608.17 281.899 1590.53 291.471C1572.89 301.053 1551.84 305.834 1527.4 305.834L1527.4 305.831Z" fill="white"/>
<path d="M1706.2 301.296V126.313H1680.12V74.5366H1733.8V117.999H1749.67C1755.73 103.138 1765.36 91.7995 1778.59 83.9877C1791.83 76.179 1807.01 72.2715 1824.15 72.2715H1843.05V116.49H1821.88C1800.45 116.49 1784.26 122.666 1773.3 135.008C1762.34 147.356 1756.86 163.86 1756.86 184.519V301.3H1706.2L1706.2 301.296Z" fill="white"/>
<path d="M1881.23 391.998V350.801H1933.78L1954.57 300.915L1854.77 74.5332H1908.45L1979.9 240.822H1981.79L2050.59 74.5332H2102L2005.22 301.293L1984.43 350.423C1978.89 363.521 1972.9 373.725 1966.48 381.035C1960.05 388.339 1949.52 391.995 1934.91 391.995H1881.23V391.998Z" fill="white"/>
</g>
<defs>
<linearGradient id="paint0_linear_6428_38238" x1="4.29544" y1="130.269" x2="333.425" y2="130.269" gradientUnits="userSpaceOnUse">
<stop stop-color="#FFA8AE"/>
<stop offset="1" stop-color="#D915F6"/>
</linearGradient>
<linearGradient id="paint1_linear_6428_38238" x1="383.807" y1="224.715" x2="53.5852" y2="224.715" gradientUnits="userSpaceOnUse">
<stop stop-color="#00F0F1"/>
<stop offset="1" stop-color="#004FFF"/>
</linearGradient>
<clipPath id="clip0_6428_38238">
<rect width="387" height="360" fill="white"/>
</clipPath>
<clipPath id="clip1_6428_38238">
<rect width="1624" height="322" fill="white" transform="translate(478 70)"/>
</clipPath>
</defs>
</svg>
