<svg width="964" height="897" viewBox="0 0 964 897" fill="none" xmlns="http://www.w3.org/2000/svg">
<g clip-path="url(#clip0_6428_38228)">
<path fill-rule="evenodd" clip-rule="evenodd" d="M131.259 47.4627L1.77337 591.344C-10.9403 644.754 47.2805 686.917 94.1774 658.26L225.596 577.977L809.047 218.211C837.479 200.674 846.811 163.757 830.107 134.855C812.747 104.817 774.004 94.9518 744.354 113.024L285.577 392.652C238.674 421.244 180.519 379.087 193.226 325.704L265.239 23.2259C265.663 21.4484 265.358 19.5652 264.399 18.0058C263.293 16.2151 261.526 14.9399 259.475 14.4509L205.695 1.68495C200.89 0.548434 196.079 0 191.346 0C163.365 0 138.01 19.0961 131.259 47.4627Z" fill="url(#paint0_linear_6428_38228)"/>
<path fill-rule="evenodd" clip-rule="evenodd" d="M869.373 238.066L737.954 318.349L154.502 678.115C126.07 695.645 116.739 732.569 133.443 761.47C150.809 791.509 189.546 801.374 219.196 783.302L677.973 503.673C724.876 475.082 783.031 517.239 770.324 570.622L698.311 873.1C697.887 874.877 698.192 876.76 699.151 878.32C700.257 880.111 702.03 881.386 704.075 881.875L757.855 894.641C791.072 902.524 824.395 882.027 832.291 848.87L961.777 304.988C971.651 263.505 938.732 228.809 901.564 228.809C890.875 228.809 879.843 231.676 869.366 238.072L869.373 238.066Z" fill="url(#paint1_linear_6428_38228)"/>
</g>
<defs>
<linearGradient id="paint0_linear_6428_38228" x1="10.6948" y1="324.343" x2="830.16" y2="324.343" gradientUnits="userSpaceOnUse">
<stop stop-color="#FFA8AE"/>
<stop offset="1" stop-color="#D915F6"/>
</linearGradient>
<linearGradient id="paint1_linear_6428_38228" x1="955.602" y1="559.495" x2="133.417" y2="559.495" gradientUnits="userSpaceOnUse">
<stop stop-color="#00F0F1"/>
<stop offset="1" stop-color="#004FFF"/>
</linearGradient>
<clipPath id="clip0_6428_38228">
<rect width="963.551" height="896.327" fill="white"/>
</clipPath>
</defs>
</svg>
