<svg xmlns="http://www.w3.org/2000/svg" xmlns:xlink="http://www.w3.org/1999/xlink" width="500" zoomAndPan="magnify" viewBox="0 0 375 374.999991" height="500" preserveAspectRatio="xMidYMid meet" version="1.2"><defs><clipPath id="3f9ae8dbc2"><path d="M 4.144531 4.144531 L 370.894531 4.144531 L 370.894531 370.894531 L 4.144531 370.894531 Z M 4.144531 4.144531 "/></clipPath></defs><g id="8a0a7df20f"><g clip-rule="nonzero" clip-path="url(#3f9ae8dbc2)"><path style=" stroke:none;fill-rule:nonzero;fill:#ffffff;fill-opacity:1;" d="M 4.144531 4.144531 L 370.894531 4.144531 L 370.894531 370.894531 L 4.144531 370.894531 Z M 4.144531 4.144531 "/></g><path style="fill-rule:nonzero;fill:#000000;fill-opacity:1;stroke-width:1;stroke-linecap:butt;stroke-linejoin:miter;stroke:#7a44ba;stroke-opacity:1;stroke-miterlimit:4;" d="M 2.000076 2.499885 L 8.999852 2.499885 M 10.000171 2.499885 L 11.000139 2.499885 M 13.000075 2.499885 L 15.000011 2.499885 M 15.999979 2.499885 L 17.999915 2.499885 M 24.000075 2.499885 L 30.999851 2.499885 M 2.000076 3.499853 L 3.000044 3.499853 M 7.999884 3.499853 L 8.999852 3.499853 M 10.000171 3.499853 L 11.000139 3.499853 M 13.000075 3.499853 L 15.999979 3.499853 M 17.999915 3.499853 L 19.999851 3.499853 M 22.000139 3.499853 L 23.000107 3.499853 M 24.000075 3.499853 L 25.000043 3.499853 M 29.999883 3.499853 L 30.999851 3.499853 M 2.000076 4.500172 L 3.000044 4.500172 M 4.000012 4.500172 L 6.999916 4.500172 M 7.999884 4.500172 L 8.999852 4.500172 M 10.000171 4.500172 L 11.000139 4.500172 M 12.000107 4.500172 L 13.000075 4.500172 M 15.000011 4.500172 L 15.999979 4.500172 M 16.999947 4.500172 L 17.999915 4.500172 M 24.000075 4.500172 L 25.000043 4.500172 M 26.000011 4.500172 L 28.999915 4.500172 M 29.999883 4.500172 L 30.999851 4.500172 M 2.000076 5.50014 L 3.000044 5.50014 M 4.000012 5.50014 L 6.999916 5.50014 M 7.999884 5.50014 L 8.999852 5.50014 M 11.000139 5.50014 L 12.000107 5.50014 M 13.000075 5.50014 L 15.000011 5.50014 M 15.999979 5.50014 L 19.999851 5.50014 M 22.000139 5.50014 L 23.000107 5.50014 M 24.000075 5.50014 L 25.000043 5.50014 M 26.000011 5.50014 L 28.999915 5.50014 M 29.999883 5.50014 L 30.999851 5.50014 M 2.000076 6.500108 L 3.000044 6.500108 M 4.000012 6.500108 L 6.999916 6.500108 M 7.999884 6.500108 L 8.999852 6.500108 M 13.000075 6.500108 L 14.000043 6.500108 M 15.000011 6.500108 L 16.999947 6.500108 M 17.999915 6.500108 L 23.000107 6.500108 M 24.000075 6.500108 L 25.000043 6.500108 M 26.000011 6.500108 L 28.999915 6.500108 M 29.999883 6.500108 L 30.999851 6.500108 M 2.000076 7.500076 L 3.000044 7.500076 M 7.999884 7.500076 L 8.999852 7.500076 M 10.000171 7.500076 L 12.000107 7.500076 M 13.000075 7.500076 L 15.000011 7.500076 M 18.999883 7.500076 L 19.999851 7.500076 M 22.000139 7.500076 L 23.000107 7.500076 M 24.000075 7.500076 L 25.000043 7.500076 M 29.999883 7.500076 L 30.999851 7.500076 M 2.000076 8.500044 L 8.999852 8.500044 M 10.000171 8.500044 L 11.000139 8.500044 M 12.000107 8.500044 L 13.000075 8.500044 M 14.000043 8.500044 L 15.000011 8.500044 M 15.999979 8.500044 L 16.999947 8.500044 M 17.999915 8.500044 L 18.999883 8.500044 M 19.999851 8.500044 L 21.000171 8.500044 M 22.000139 8.500044 L 23.000107 8.500044 M 24.000075 8.500044 L 30.999851 8.500044 M 10.000171 9.500012 L 12.000107 9.500012 M 13.000075 9.500012 L 14.000043 9.500012 M 15.000011 9.500012 L 23.000107 9.500012 M 4.000012 10.49998 L 6.999916 10.49998 M 7.999884 10.49998 L 8.999852 10.49998 M 10.000171 10.49998 L 12.000107 10.49998 M 13.000075 10.49998 L 14.000043 10.49998 M 15.000011 10.49998 L 15.999979 10.49998 M 16.999947 10.49998 L 17.999915 10.49998 M 21.000171 10.49998 L 22.000139 10.49998 M 23.000107 10.49998 L 26.000011 10.49998 M 27.999947 10.49998 L 30.999851 10.49998 M 2.000076 11.499948 L 4.000012 11.499948 M 5.999948 11.499948 L 7.999884 11.499948 M 10.000171 11.499948 L 11.000139 11.499948 M 12.000107 11.499948 L 13.000075 11.499948 M 16.999947 11.499948 L 17.999915 11.499948 M 19.999851 11.499948 L 21.000171 11.499948 M 22.000139 11.499948 L 24.000075 11.499948 M 26.000011 11.499948 L 26.999979 11.499948 M 27.999947 11.499948 L 28.999915 11.499948 M 29.999883 11.499948 L 30.999851 11.499948 M 2.000076 12.499916 L 4.000012 12.499916 M 5.999948 12.499916 L 6.999916 12.499916 M 7.999884 12.499916 L 8.999852 12.499916 M 12.000107 12.499916 L 13.000075 12.499916 M 15.999979 12.499916 L 16.999947 12.499916 M 17.999915 12.499916 L 19.999851 12.499916 M 21.000171 12.499916 L 22.000139 12.499916 M 23.000107 12.499916 L 27.999947 12.499916 M 2.000076 13.499884 L 3.000044 13.499884 M 6.999916 13.499884 L 7.999884 13.499884 M 13.000075 13.499884 L 14.000043 13.499884 M 15.000011 13.499884 L 15.999979 13.499884 M 16.999947 13.499884 L 26.000011 13.499884 M 28.999915 13.499884 L 29.999883 13.499884 M 3.000044 14.499852 L 4.99998 14.499852 M 5.999948 14.499852 L 8.999852 14.499852 M 12.000107 14.499852 L 13.000075 14.499852 M 15.000011 14.499852 L 16.999947 14.499852 M 17.999915 14.499852 L 18.999883 14.499852 M 21.000171 14.499852 L 22.000139 14.499852 M 23.000107 14.499852 L 24.000075 14.499852 M 25.000043 14.499852 L 26.000011 14.499852 M 27.999947 14.499852 L 30.999851 14.499852 M 2.000076 15.500171 L 3.000044 15.500171 M 5.999948 15.500171 L 6.999916 15.500171 M 12.000107 15.500171 L 15.000011 15.500171 M 18.999883 15.500171 L 25.000043 15.500171 M 26.000011 15.500171 L 27.999947 15.500171 M 29.999883 15.500171 L 30.999851 15.500171 M 5.999948 16.500139 L 6.999916 16.500139 M 7.999884 16.500139 L 8.999852 16.500139 M 10.000171 16.500139 L 12.000107 16.500139 M 13.000075 16.500139 L 14.000043 16.500139 M 15.000011 16.500139 L 18.999883 16.500139 M 23.000107 16.500139 L 24.000075 16.500139 M 25.000043 16.500139 L 26.000011 16.500139 M 3.000044 17.500107 L 4.99998 17.500107 M 8.999852 17.500107 L 11.000139 17.500107 M 15.000011 17.500107 L 19.999851 17.500107 M 21.000171 17.500107 L 24.000075 17.500107 M 26.000011 17.500107 L 27.999947 17.500107 M 28.999915 17.500107 L 30.999851 17.500107 M 5.999948 18.500075 L 6.999916 18.500075 M 7.999884 18.500075 L 8.999852 18.500075 M 12.000107 18.500075 L 14.000043 18.500075 M 15.999979 18.500075 L 18.999883 18.500075 M 19.999851 18.500075 L 24.000075 18.500075 M 26.999979 18.500075 L 29.999883 18.500075 M 2.000076 19.500043 L 4.99998 19.500043 M 5.999948 19.500043 L 7.999884 19.500043 M 8.999852 19.500043 L 11.000139 19.500043 M 12.000107 19.500043 L 13.000075 19.500043 M 15.000011 19.500043 L 15.999979 19.500043 M 17.999915 19.500043 L 18.999883 19.500043 M 23.000107 19.500043 L 24.000075 19.500043 M 25.000043 19.500043 L 30.999851 19.500043 M 2.000076 20.500011 L 3.000044 20.500011 M 4.000012 20.500011 L 5.999948 20.500011 M 7.999884 20.500011 L 15.000011 20.500011 M 15.999979 20.500011 L 16.999947 20.500011 M 19.999851 20.500011 L 21.000171 20.500011 M 22.000139 20.500011 L 23.000107 20.500011 M 24.000075 20.500011 L 26.000011 20.500011 M 27.999947 20.500011 L 28.999915 20.500011 M 2.000076 21.499979 L 3.000044 21.499979 M 5.999948 21.499979 L 7.999884 21.499979 M 8.999852 21.499979 L 10.000171 21.499979 M 12.000107 21.499979 L 13.000075 21.499979 M 15.999979 21.499979 L 17.999915 21.499979 M 18.999883 21.499979 L 19.999851 21.499979 M 24.000075 21.499979 L 26.000011 21.499979 M 26.999979 21.499979 L 27.999947 21.499979 M 28.999915 21.499979 L 30.999851 21.499979 M 2.000076 22.499947 L 3.000044 22.499947 M 5.999948 22.499947 L 8.999852 22.499947 M 10.000171 22.499947 L 14.000043 22.499947 M 18.999883 22.499947 L 19.999851 22.499947 M 22.000139 22.499947 L 26.999979 22.499947 M 27.999947 22.499947 L 29.999883 22.499947 M 10.000171 23.499915 L 11.000139 23.499915 M 12.000107 23.499915 L 16.999947 23.499915 M 18.999883 23.499915 L 21.000171 23.499915 M 22.000139 23.499915 L 23.000107 23.499915 M 26.000011 23.499915 L 27.999947 23.499915 M 29.999883 23.499915 L 30.999851 23.499915 M 2.000076 24.499883 L 8.999852 24.499883 M 11.000139 24.499883 L 13.000075 24.499883 M 14.000043 24.499883 L 18.999883 24.499883 M 21.000171 24.499883 L 23.000107 24.499883 M 24.000075 24.499883 L 25.000043 24.499883 M 26.000011 24.499883 L 26.999979 24.499883 M 2.000076 25.499851 L 3.000044 25.499851 M 7.999884 25.499851 L 8.999852 25.499851 M 12.000107 25.499851 L 15.999979 25.499851 M 16.999947 25.499851 L 17.999915 25.499851 M 19.999851 25.499851 L 23.000107 25.499851 M 26.000011 25.499851 L 27.999947 25.499851 M 29.999883 25.499851 L 30.999851 25.499851 M 2.000076 26.500171 L 3.000044 26.500171 M 4.000012 26.500171 L 6.999916 26.500171 M 7.999884 26.500171 L 8.999852 26.500171 M 10.000171 26.500171 L 12.000107 26.500171 M 15.999979 26.500171 L 16.999947 26.500171 M 17.999915 26.500171 L 18.999883 26.500171 M 19.999851 26.500171 L 21.000171 26.500171 M 22.000139 26.500171 L 28.999915 26.500171 M 29.999883 26.500171 L 30.999851 26.500171 M 2.000076 27.500139 L 3.000044 27.500139 M 4.000012 27.500139 L 6.999916 27.500139 M 7.999884 27.500139 L 8.999852 27.500139 M 10.000171 27.500139 L 11.000139 27.500139 M 14.000043 27.500139 L 15.999979 27.500139 M 16.999947 27.500139 L 17.999915 27.500139 M 18.999883 27.500139 L 24.000075 27.500139 M 25.000043 27.500139 L 26.000011 27.500139 M 2.000076 28.500107 L 3.000044 28.500107 M 4.000012 28.500107 L 6.999916 28.500107 M 7.999884 28.500107 L 8.999852 28.500107 M 10.000171 28.500107 L 11.000139 28.500107 M 12.000107 28.500107 L 14.000043 28.500107 M 15.000011 28.500107 L 17.999915 28.500107 M 18.999883 28.500107 L 29.999883 28.500107 M 2.000076 29.500075 L 3.000044 29.500075 M 7.999884 29.500075 L 8.999852 29.500075 M 11.000139 29.500075 L 12.000107 29.500075 M 14.000043 29.500075 L 15.000011 29.500075 M 15.999979 29.500075 L 17.999915 29.500075 M 18.999883 29.500075 L 19.999851 29.500075 M 24.000075 29.500075 L 25.000043 29.500075 M 26.000011 29.500075 L 27.999947 29.500075 M 28.999915 29.500075 L 29.999883 29.500075 M 2.000076 30.500043 L 8.999852 30.500043 M 11.000139 30.500043 L 12.000107 30.500043 M 15.000011 30.500043 L 16.999947 30.500043 M 17.999915 30.500043 L 25.000043 30.500043 M 26.000011 30.500043 L 26.999979 30.500043 M 27.999947 30.500043 L 28.999915 30.500043 " transform="matrix(11.113637,0,0,11.113637,4.142976,4.142971)"/></g></svg>