<svg width="496" height="568" viewBox="0 0 496 568" fill="none" xmlns="http://www.w3.org/2000/svg">
<g clip-path="url(#clip0_1599_24285)">
<rect y="504" width="64" height="64" rx="16" fill="#121212"/>
<rect x="72" y="432" width="64" height="64" rx="16" fill="#121212"/>
<rect x="72" y="504" width="64" height="64" rx="16" fill="#121212"/>
<rect x="72" y="504" width="64" height="64" rx="16" fill="#0095F1"/>
<rect x="144" y="360" width="64" height="64" rx="16" fill="#121212"/>
<rect x="144" y="432" width="64" height="64" rx="16" fill="#121212"/>
<rect x="144" y="504" width="64" height="64" rx="16" fill="#121212"/>
<rect x="216" y="288" width="64" height="64" rx="16" fill="#121212"/>
<rect x="216" y="360" width="64" height="64" rx="16" fill="#121212"/>
<rect x="216" y="432" width="64" height="64" rx="16" fill="#121212"/>
<rect x="216" y="504" width="64" height="64" rx="16" fill="#121212"/>
<rect x="288" y="144" width="64" height="64" rx="16" fill="#121212"/>
<rect x="288" y="216" width="64" height="64" rx="16" fill="#121212"/>
<rect x="288" y="288" width="64" height="64" rx="16" fill="#121212"/>
<rect x="288" y="288" width="64" height="64" rx="16" fill="#121212"/>
<rect x="288" y="432" width="64" height="64" rx="16" fill="#121212"/>
<rect x="288" y="504" width="64" height="64" rx="16" fill="#121212"/>
<g filter="url(#filter0_dddd_1599_24285)">
<rect x="288" y="360" width="64" height="64" rx="16" fill="#512DA8"/>
</g>
<rect x="360" y="72" width="64" height="64" rx="16" fill="#121212"/>
<rect x="360" y="144" width="64" height="64" rx="16" fill="#121212"/>
<rect x="360" y="288" width="64" height="64" rx="16" fill="#121212"/>
<rect x="360" y="360" width="64" height="64" rx="16" fill="#121212"/>
<rect x="360" y="432" width="64" height="64" rx="16" fill="#121212"/>
<rect x="360" y="504" width="64" height="64" rx="16" fill="#121212"/>
<g filter="url(#filter1_dddd_1599_24285)">
<rect x="360" y="216" width="64" height="64" rx="16" fill="#00F0F1"/>
</g>
<rect x="432" width="64" height="64" rx="16" fill="#121212"/>
<rect x="432" y="72" width="64" height="64" rx="16" fill="#121212"/>
<rect x="432" y="144" width="64" height="64" rx="16" fill="#121212"/>
<rect x="432" y="216" width="64" height="64" rx="16" fill="#121212"/>
<rect x="432" y="288" width="64" height="64" rx="16" fill="#121212"/>
<rect x="432" y="360" width="64" height="64" rx="16" fill="#121212"/>
<rect x="432" y="432" width="64" height="64" rx="16" fill="#121212"/>
<rect x="432" y="504" width="64" height="64" rx="16" fill="#121212"/>
</g>
<defs>
<filter id="filter0_dddd_1599_24285" x="188" y="280" width="264" height="264" filterUnits="userSpaceOnUse" color-interpolation-filters="sRGB">
<feFlood flood-opacity="0" result="BackgroundImageFix"/>
<feColorMatrix in="SourceAlpha" type="matrix" values="0 0 0 0 0 0 0 0 0 0 0 0 0 0 0 0 0 0 127 0" result="hardAlpha"/>
<feOffset dy="20"/>
<feGaussianBlur stdDeviation="50"/>
<feComposite in2="hardAlpha" operator="out"/>
<feColorMatrix type="matrix" values="0 0 0 0 0.317647 0 0 0 0 0.176471 0 0 0 0 0.658824 0 0 0 1 0"/>
<feBlend mode="normal" in2="BackgroundImageFix" result="effect1_dropShadow_1599_24285"/>
<feColorMatrix in="SourceAlpha" type="matrix" values="0 0 0 0 0 0 0 0 0 0 0 0 0 0 0 0 0 0 127 0" result="hardAlpha"/>
<feOffset dy="6.38265"/>
<feGaussianBlur stdDeviation="15.9566"/>
<feComposite in2="hardAlpha" operator="out"/>
<feColorMatrix type="matrix" values="0 0 0 0 0.317647 0 0 0 0 0.176471 0 0 0 0 0.658824 0 0 0 0.318 0"/>
<feBlend mode="normal" in2="effect1_dropShadow_1599_24285" result="effect2_dropShadow_1599_24285"/>
<feColorMatrix in="SourceAlpha" type="matrix" values="0 0 0 0 0 0 0 0 0 0 0 0 0 0 0 0 0 0 127 0" result="hardAlpha"/>
<feOffset dy="2.41451"/>
<feGaussianBlur stdDeviation="6.03625"/>
<feComposite in2="hardAlpha" operator="out"/>
<feColorMatrix type="matrix" values="0 0 0 0 0.317647 0 0 0 0 0.176471 0 0 0 0 0.658824 0 0 0 0.12 0"/>
<feBlend mode="normal" in2="effect2_dropShadow_1599_24285" result="effect3_dropShadow_1599_24285"/>
<feColorMatrix in="SourceAlpha" type="matrix" values="0 0 0 0 0 0 0 0 0 0 0 0 0 0 0 0 0 0 127 0" result="hardAlpha"/>
<feOffset dy="0.796192"/>
<feGaussianBlur stdDeviation="1.99048"/>
<feComposite in2="hardAlpha" operator="out"/>
<feColorMatrix type="matrix" values="0 0 0 0 0.317647 0 0 0 0 0.176471 0 0 0 0 0.658824 0 0 0 0.04 0"/>
<feBlend mode="normal" in2="effect3_dropShadow_1599_24285" result="effect4_dropShadow_1599_24285"/>
<feBlend mode="normal" in="SourceGraphic" in2="effect4_dropShadow_1599_24285" result="shape"/>
</filter>
<filter id="filter1_dddd_1599_24285" x="260" y="136" width="264" height="264" filterUnits="userSpaceOnUse" color-interpolation-filters="sRGB">
<feFlood flood-opacity="0" result="BackgroundImageFix"/>
<feColorMatrix in="SourceAlpha" type="matrix" values="0 0 0 0 0 0 0 0 0 0 0 0 0 0 0 0 0 0 127 0" result="hardAlpha"/>
<feOffset dy="20"/>
<feGaussianBlur stdDeviation="50"/>
<feComposite in2="hardAlpha" operator="out"/>
<feColorMatrix type="matrix" values="0 0 0 0 0 0 0 0 0 0.941176 0 0 0 0 0.945098 0 0 0 1 0"/>
<feBlend mode="normal" in2="BackgroundImageFix" result="effect1_dropShadow_1599_24285"/>
<feColorMatrix in="SourceAlpha" type="matrix" values="0 0 0 0 0 0 0 0 0 0 0 0 0 0 0 0 0 0 127 0" result="hardAlpha"/>
<feOffset dy="6.38265"/>
<feGaussianBlur stdDeviation="15.9566"/>
<feComposite in2="hardAlpha" operator="out"/>
<feColorMatrix type="matrix" values="0 0 0 0 0 0 0 0 0 0.941176 0 0 0 0 0.945098 0 0 0 0.318 0"/>
<feBlend mode="normal" in2="effect1_dropShadow_1599_24285" result="effect2_dropShadow_1599_24285"/>
<feColorMatrix in="SourceAlpha" type="matrix" values="0 0 0 0 0 0 0 0 0 0 0 0 0 0 0 0 0 0 127 0" result="hardAlpha"/>
<feOffset dy="2.41451"/>
<feGaussianBlur stdDeviation="6.03625"/>
<feComposite in2="hardAlpha" operator="out"/>
<feColorMatrix type="matrix" values="0 0 0 0 0 0 0 0 0 0.941176 0 0 0 0 0.945098 0 0 0 0.12 0"/>
<feBlend mode="normal" in2="effect2_dropShadow_1599_24285" result="effect3_dropShadow_1599_24285"/>
<feColorMatrix in="SourceAlpha" type="matrix" values="0 0 0 0 0 0 0 0 0 0 0 0 0 0 0 0 0 0 127 0" result="hardAlpha"/>
<feOffset dy="0.796192"/>
<feGaussianBlur stdDeviation="1.99048"/>
<feComposite in2="hardAlpha" operator="out"/>
<feColorMatrix type="matrix" values="0 0 0 0 0 0 0 0 0 0.941176 0 0 0 0 0.945098 0 0 0 0.04 0"/>
<feBlend mode="normal" in2="effect3_dropShadow_1599_24285" result="effect4_dropShadow_1599_24285"/>
<feBlend mode="normal" in="SourceGraphic" in2="effect4_dropShadow_1599_24285" result="shape"/>
</filter>
<clipPath id="clip0_1599_24285">
<rect width="496" height="568" fill="white"/>
</clipPath>
</defs>
</svg>
