<svg width="791" height="737" viewBox="0 0 791 737" fill="none" xmlns="http://www.w3.org/2000/svg">
<rect width="790.845" height="737" rx="40.7182" fill="#F9F3FF"/>
<path d="M505.75 139.039C517.201 134.209 528.652 129.38 540.657 124.312C541.911 123.701 542.609 123.327 543.308 122.954C554.986 120.258 566.565 116.939 578.372 115.041C590.187 113.143 602.275 113.402 613.063 119.553C617.53 122.1 621.028 126.34 625.049 130.396C625.452 131.42 625.773 131.858 626.093 132.295C626.093 132.295 626.015 132.281 626.042 132.538C626.379 132.934 626.689 133.074 626.999 133.214C626.999 133.214 626.936 133.232 626.852 133.559C630.425 142.542 631.659 151.536 630.995 160.906C629.716 178.941 623.879 195.686 616.688 212.029C602.141 245.092 582.387 275.027 560.927 303.915C556.603 309.736 552.113 315.434 547.452 321.511C545.387 319.252 543.82 317.537 542.504 315.587C546.693 310.027 550.631 304.701 554.873 299.269C559.413 295.289 559.169 291.804 556.015 286.78C539.58 260.598 523.595 234.132 507.638 207.654C505.624 204.311 503.324 202.551 499.494 201.698C457.875 192.43 416.296 182.984 374.706 173.584C363.834 171.127 352.964 168.661 341.228 166.003C343.83 170.111 345.91 173.394 348.148 177.036C356.311 190.544 364.278 203.718 372.328 216.84C385.177 237.785 398.08 258.696 411.002 279.863C411.306 280.265 411.57 280.426 411.8 280.585C411.767 280.585 411.784 280.52 411.772 280.859C415.568 287.403 419.377 293.608 423.348 300.059C427.85 307.403 432.189 314.501 436.691 321.933C438.354 323.682 439.632 325.865 441.392 326.37C447.042 327.988 452.871 328.986 458.982 330.365C467.29 332.271 475.246 334.037 483.504 335.923C484.236 336.052 484.665 336.059 485.371 336.282C493.278 338.158 500.91 339.818 508.882 341.621C516.019 343.338 522.816 344.911 530.112 346.599C529.035 332.54 527.987 318.865 526.821 303.641C529.584 305.704 531.185 306.898 532.773 308.5C534.329 327.611 535.897 346.314 537.197 365C536.577 364.925 536.224 364.867 535.653 364.569C530.883 363.255 531.102 359.362 530.728 355.895C525.505 354.698 520.504 353.528 515.492 352.406C488.439 346.35 461.384 340.306 434.307 333.904C432.52 330.285 430.903 326.929 428.971 323.766C395.773 269.44 362.527 215.145 329.348 160.808C328.002 158.603 327.214 156.058 326.167 153.672C345.336 157.922 364.514 162.129 383.67 166.433C400.854 170.294 417.993 174.357 435.21 178.057C437.252 178.496 439.974 177.74 441.861 176.644C462.461 164.68 482.957 152.538 503.949 140.161C504.862 139.598 505.306 139.318 505.75 139.039ZM619.774 151.345C617.102 136.911 606.993 129.669 593.911 126.712C578.367 123.199 563.127 127.013 548.313 131.692C513.933 142.549 482.925 160.234 452.767 179.555C452.177 179.933 451.72 180.519 450.484 181.685C459.741 183.806 468.181 185.841 476.669 187.652C483.506 189.11 490.402 190.296 497.627 192.221C499.612 192.652 501.578 193.239 503.586 193.482C508.456 194.071 511.44 196.588 514.011 200.902C527.674 223.828 541.707 246.533 555.621 269.309C558.752 274.434 561.919 279.537 565.25 284.943C565.912 284.143 566.237 283.803 566.501 283.421C568.01 281.239 569.524 279.06 571.001 276.857C588.845 250.233 605.349 222.884 615.276 192.161C619.468 179.188 622.513 165.946 619.774 151.345Z" fill="#FAFBFB"/>
<path d="M542.365 315.909C543.93 317.621 545.494 319.332 547.555 321.586C552.207 315.522 556.688 309.836 561.004 304.027C582.422 275.2 602.139 245.328 616.659 212.334C623.835 196.026 629.662 179.316 630.937 161.319C631.6 151.968 630.369 142.994 626.817 134C636.517 142.344 647.108 150.281 652.489 162.574C657.368 173.719 656.677 185.466 654.516 197.092C649.283 225.247 636.849 250.55 622.242 274.759C612.026 291.693 600.513 307.848 589.243 324.83C587.167 327.774 585.427 330.238 583.406 332.884C581.485 335.291 579.846 337.515 577.962 339.951C576.179 342.072 574.641 343.982 572.84 346.217C577.454 350.742 581.87 355.072 585.902 359.573C577.755 360.761 569.993 361.78 561.798 362.794C553.44 363.526 545.513 364.263 537.587 365C536.022 346.337 534.457 327.673 533.167 308.478C533.635 307.944 533.828 307.941 534.163 308.218C536.992 310.967 539.678 313.438 542.365 315.909Z" fill="#26A17B"/>
<path d="M537.858 365.076C546.066 364.354 554.006 363.615 562.745 363C578.606 366.568 593.656 370.069 608.745 373.39C610.784 373.838 613.021 373.383 615.167 373.346C613.75 376.038 612.334 378.729 610.783 381.93C610.649 382.439 610.626 382.862 610.626 382.862C605.674 388.409 600.553 393.816 595.8 399.529C578.52 420.296 561.363 441.166 544.159 461.997C527.154 482.587 510.14 503.171 493.145 523.769C482.61 536.536 472.18 549.392 461.482 562.02C460.169 563.57 457.487 563.962 455.07 564.96C454.701 565.029 454.734 565.035 454.528 564.76C452.261 564.011 450.199 563.536 447.887 562.835C445.295 562.441 442.951 562.274 440.608 562.106C418.775 556.914 396.943 551.716 375.106 546.544C374.049 546.294 372.939 546.265 371.455 546.095C370.605 545.835 370.156 545.614 369.446 545.39C366.897 544.826 364.607 544.267 362.167 543.299C365.24 540.792 368.464 538.696 372.067 536.736C398.816 542.759 425.191 548.613 451.541 554.579C454.596 555.271 456.333 554.262 458.255 551.932C501.184 499.87 544.202 447.88 587.197 395.872C591.329 390.873 595.419 385.84 600.088 380.141C596.678 379.686 594.232 379.359 591.529 378.811C572.997 374.366 554.722 370.142 536.465 365.659C536.499 365.229 536.515 365.057 536.532 364.885C536.884 364.943 537.237 365.001 537.858 365.076Z" fill="#A694BD"/>
<path d="M614.708 373.481C612.472 373.803 610.258 374.264 608.242 373.81C593.315 370.449 578.428 366.907 563.167 363.302C570.497 362.149 578.188 361.116 586.593 359.929C588.4 359.995 589.494 360.214 590.892 360.573C594.594 361.429 597.993 362.145 602.454 363.086C595.947 352.32 590.007 342.493 584.067 332.665C585.791 330.167 587.515 327.668 589.489 325C598.111 338.775 606.577 352.662 614.73 366.739C615.661 368.347 614.834 371.018 614.708 373.481Z" fill="#FAFBFB"/>
<path d="M440.167 563.014C442.477 562.961 445.039 563.052 447.881 563.407C448.169 563.762 448.177 563.855 448.162 563.96C448.14 563.973 448.096 564 448.096 564C445.537 563.72 442.978 563.44 440.167 563.014Z" fill="#353537"/>
<path d="M454.144 565C454.19 567.599 454.135 567.609 450.266 565.354C450.084 565.069 450.138 564.998 450.541 565.005C452.018 565.016 453.092 565.02 454.167 565.024C454.167 565.024 454.132 565.017 454.144 565Z" fill="#353537"/>
<path d="M450.112 565C449.53 564.863 448.966 564.694 448.256 564.295C448.11 564.065 448.138 564.015 448.373 564C449.128 564.29 449.647 564.596 450.167 564.902C450.167 564.902 450.131 564.968 450.112 565Z" fill="#353537"/>
<path d="M626.167 132C625.74 131.876 625.436 131.546 625.167 131C625.564 131.121 625.927 131.457 626.167 132Z" fill="#966DF9"/>
<path d="M641.141 438C641.265 438.238 640.942 438.563 640.191 439C640.073 438.77 640.383 438.429 641.141 438Z" fill="#353537"/>
<path d="M371.368 537.005C368.153 539.087 364.939 541.169 361.554 543.512C346.225 552.934 331.303 562.513 315.854 571.161C291.244 584.937 265.753 596.836 237.969 602.983C224.632 605.934 211.05 607.774 197.8 603.394C191.95 601.46 186.321 597.88 181.565 593.896C175.155 588.528 169.685 582.049 164.167 575.587C171.874 579.31 179.977 580.127 188.21 580.364C207.639 580.924 225.781 575.327 243.543 568.446C283.465 552.98 319.415 530.476 354.396 506.217C359.587 502.617 361.544 499.038 359.642 493C360.898 493.991 362.097 495.156 363.09 496.475C368.183 503.244 373.224 510.053 378.335 517.122C378.891 517.934 379.396 518.47 380.03 519.358C380.201 523.385 380.243 527.062 379.972 530.836C376.896 532.957 374.132 534.981 371.368 537.005Z" fill="#966DF9"/>
<path d="M359.363 492.758C361.42 498.623 359.461 502.246 354.265 505.891C319.248 530.452 283.261 553.236 243.298 568.894C225.518 575.861 207.357 581.527 187.909 580.961C179.667 580.721 171.555 579.893 163.849 575.796C163.502 575.933 163.458 576.011 163.755 575.879C164.014 575.549 163.975 575.351 163.937 575.153C147.562 563.285 145.65 546.307 147.98 528.133C150.577 507.874 158.377 489.273 167.316 470.461C176.541 454.263 185.491 438.616 194.773 423C197.264 424.503 199.424 425.975 201.641 427.486C200.781 428.887 199.974 430.229 199.142 431.554C187.048 450.803 176.012 470.62 167.864 491.927C162.181 506.787 157.788 521.94 158.741 538.165C159.663 553.837 168.051 564.294 183.416 568.358C191.72 568.65 199.807 569.94 207.526 568.77C241.573 563.608 271.642 548.137 301.208 530.804C304.954 528.57 308.394 526.358 312.147 524.117C315.322 522.051 318.184 520.014 321.392 517.928C324.013 516.562 326.379 515.381 328.549 513.905C338.85 506.9 349.097 499.815 359.363 492.758Z" fill="#FAFDFC"/>
<path d="M163.901 575C164.206 575.328 164.24 575.57 164.047 576C163.603 575.933 163.385 575.678 163.167 575.423C163.321 575.253 163.475 575.083 163.901 575Z" fill="#966DF9"/>
<path d="M325.882 153.564C327.204 156.186 327.99 158.734 329.335 160.94C362.481 215.332 395.695 269.683 428.859 324.064C430.79 327.23 432.406 330.59 434.167 334.535C430.716 339.631 427.365 344.131 423.802 348.456C375.322 407.3 326.814 466.12 277.951 525C275.495 523.827 272.715 523.088 271.432 521.283C267.324 515.504 263.771 509.33 259.943 503.068C259.624 502.417 259.368 502.007 258.975 501.285C251.209 488.539 243.579 476.106 235.852 463.447C222.844 442.14 209.932 421.057 196.914 399.665C193.672 394.288 190.537 389.22 187.395 383.954C187.337 383.467 187.172 383.276 186.893 383.185C179.852 371.552 172.934 359.842 165.698 348.333C163.378 344.644 163.745 342.012 166.456 338.748C185.928 315.304 205.254 291.738 225.027 267.832C227.509 264.828 229.592 262.204 231.912 259.426C232.575 258.66 232.999 258.049 233.424 257.438C252.103 234.887 270.792 212.345 289.455 189.781C298.592 178.734 307.76 167.711 316.742 156.538C319.194 153.488 321.837 152.15 325.882 153.564ZM174.303 344.583C175.036 346.129 175.636 347.756 176.522 349.209C208.387 401.489 240.273 453.755 272.18 506.01C273.496 508.165 275.031 510.187 276.997 513.047C278.743 510.261 279.944 508.343 281.796 506.343C301.356 482.619 320.915 458.894 341.022 434.846C344.129 430.882 347.235 426.918 350.865 422.689C358.346 413.597 365.827 404.506 373.783 395.045C389.195 376.394 404.608 357.743 420.017 339.089C424.599 333.543 424.594 333.538 420.439 327.455C420.265 327.2 420.024 326.99 419.565 326.108C409.411 309.475 399.258 292.841 389.014 275.558C368.687 242.217 348.372 208.869 327.988 175.563C327.104 174.118 325.579 173.066 324.538 171.145C323.731 169.421 322.923 167.697 321.534 164.731C319.738 166.989 318.702 168.328 317.629 169.635C306.627 183.025 295.635 196.425 284.61 209.796C261.661 237.626 238.675 265.427 215.739 293.268C201.844 310.134 188.014 327.052 174.303 344.583Z" fill="#CDD3D3"/>
<path d="M620.167 152.319C597.739 148.938 576.757 154.995 556.634 163.541C538.24 171.353 520.636 181.016 502.684 189.865C501.301 190.547 499.923 191.241 498.207 192C491.015 190.768 484.131 189.585 477.306 188.131C468.833 186.326 460.408 184.297 451.167 182.182C452.401 181.019 452.857 180.435 453.446 180.058C483.551 160.792 514.504 143.158 548.824 132.332C563.612 127.667 578.824 123.863 594.341 127.367C607.4 130.315 617.491 137.536 620.167 152.319Z" fill="#26A17B"/>
<path d="M442.032 301.821C444.09 294.364 446.148 286.908 448.017 280.138C463.72 280.138 479.08 279.681 494.382 280.43C498.699 280.641 502.844 284.381 507.414 286.888C508.03 287.441 508.301 287.608 508.572 287.775C508.572 287.775 508.575 287.744 508.646 288.062C510.591 292.909 513.234 297.28 514.197 301.996C517.032 315.886 513.196 329.045 508.577 342C500.976 340.342 493.375 338.684 485.618 336.485C486.522 331.45 487.582 326.957 488.735 322.08C488.353 309.312 483.084 306.239 464.733 307.898C462.801 315.432 460.836 323.095 458.87 330.757C453.134 329.521 447.329 328.524 441.702 326.907C439.949 326.404 438.676 324.222 437.167 322.139C438.777 314.92 440.404 308.37 442.032 301.821Z" fill="#966DF9"/>
<path d="M279.167 525.207C327.621 466.335 376.082 407.468 424.514 348.578C428.074 344.249 431.422 339.745 434.892 335C461.917 340.736 488.919 346.791 515.918 352.858C520.92 353.982 525.912 355.154 531.124 356.353C531.498 359.826 531.279 363.726 536.04 365.043C536.241 365.456 536.225 365.628 535.828 366.075C532.59 365.805 529.734 365.26 526.548 364.546C517.415 362.573 508.613 360.768 499.636 358.644C487.51 355.785 475.953 351.338 463.413 351.582C460.388 351.641 457.374 349.329 454.262 348.434C448.93 346.9 443.538 345.563 438.129 344.329C437.579 344.204 436.641 345.264 436.051 345.925C431.58 350.93 427.315 356.014 426.458 363.116C426.164 365.556 425.125 367.906 424.236 370.483C423.916 371.181 423.786 371.693 423.666 372.173C423.676 372.142 423.732 372.177 423.397 372.157C417.725 377.466 412.372 382.778 407.057 388.128C404.7 390.501 402.419 392.951 399.728 395.439C396.257 395.017 394.221 396.381 392.311 398.812C386.838 405.779 381.08 412.52 375.526 419.425C374.523 420.672 373.956 422.273 372.898 423.869C369.294 428.332 365.978 432.637 362.343 437.004C358.921 440.274 355.593 443.294 352.754 446.722C338.426 464.024 324.198 481.41 309.996 498.817C306.208 503.46 302.637 508.282 298.672 513.158C296.69 515.269 295.002 517.244 292.871 519.738C299.781 521.417 306.033 522.936 312.285 524.454C308.844 526.658 305.403 528.862 301.264 531C299.523 530.647 298.481 530.355 297.435 530.076C291.346 528.451 285.256 526.83 279.167 525.207Z" fill="#A694BD"/>
<path d="M554.702 300C549.746 292.891 544.95 285.762 540.468 278.44C527.279 256.891 514.252 235.242 501.018 213.721C500.086 212.206 498.119 210.771 496.403 210.413C491.516 209.393 486.41 209.366 481.573 208.189C472.454 205.969 463.542 202.878 454.406 200.747C420.79 192.907 387.119 185.307 353.463 177.642C351.943 177.296 350.368 177.198 348.372 176.859C345.846 173.432 343.767 170.13 341.167 166C352.897 168.673 363.761 171.152 374.627 173.623C416.196 183.075 457.754 192.573 499.352 201.892C503.18 202.749 505.478 204.519 507.492 207.881C523.441 234.504 539.417 261.116 555.844 287.442C558.997 292.494 559.24 295.998 554.702 300Z" fill="#A694BD"/>
<path d="M509.45 342.032C513.702 328.945 517.513 315.798 514.696 301.92C513.74 297.209 511.115 292.842 509.167 288C518.339 293.183 528.966 296.938 534.167 307.978C534.003 308.312 533.811 308.315 533.359 308.442C531.515 307.374 529.932 306.182 527.198 304.124C528.352 319.319 529.388 332.968 530.454 347C523.236 345.315 516.511 343.746 509.45 342.032Z" fill="#404347"/>
<path d="M459.167 330.539C460.77 322.693 462.722 314.989 464.641 307.415C482.864 305.746 488.096 308.836 488.167 321.76C486.218 326.823 484.668 331.412 483.119 336C475.251 334.227 467.383 332.454 459.167 330.539Z" fill="#404347"/>
<path d="M442.167 301.856C440.754 308.564 439.063 315.114 437.22 322C432.578 315.244 428.088 308.152 423.472 300.385C421.619 295.14 419.893 290.57 418.167 286C427.357 289.429 435.352 294.539 442.167 301.856Z" fill="#404347"/>
<path d="M418.145 285.331C420.003 290.175 421.605 294.866 423.167 300C419.47 294.077 415.812 287.712 412.167 281C414.082 282.161 415.986 283.67 418.145 285.331Z" fill="#966DF9"/>
<path d="M411.167 280.061C411.493 279.865 411.865 280.138 412.167 280.934C411.802 281.148 411.507 280.838 411.167 280.061Z" fill="#966DF9"/>
<path d="M583.358 333C589.624 342.568 595.61 352.319 602.167 363C597.672 362.067 594.247 361.355 590.443 360.144C586.099 353.062 582.133 346.479 578.167 339.896C579.804 337.659 581.441 335.421 583.358 333Z" fill="#A694BD"/>
<path d="M380.38 530.665C397.21 534.315 413.725 538.075 430.248 541.806C436.466 543.209 442.755 544.339 448.902 545.998C451.904 546.808 453.664 546.24 455.64 543.833C479.148 515.195 502.774 486.654 526.356 458.076C547.754 432.143 569.136 406.196 590.714 380C593.337 380.07 595.772 380.396 599.167 380.85C594.519 386.532 590.447 391.551 586.333 396.535C543.531 448.394 500.706 500.234 457.968 552.147C456.056 554.47 454.326 555.476 451.285 554.786C425.053 548.837 398.795 543 372.167 536.994C374.549 534.826 377.309 532.795 380.38 530.665Z" fill="#CCD2D2"/>
<path d="M451.185 564.998C450.147 564.815 449.461 564.636 448.485 564.453C448.187 564.349 448.18 564.249 448.167 564C450.098 564.129 452.036 564.407 454.167 564.847C453.419 565.006 452.478 565.004 451.185 564.998Z" fill="#1B1B1B"/>
<path d="M378.167 517C378.817 517.157 379.53 517.487 380.167 518C379.47 517.846 378.85 517.509 378.167 517Z" fill="#38393A"/>
<path d="M236.167 463.578C235.527 467.46 234.791 471.116 233.799 476.047C229.487 470.452 225.627 465.442 221.319 459.851C217.973 465.458 214.859 470.449 211.966 475.566C202.072 493.062 192.869 510.893 187.06 530.237C183.403 542.414 180.665 554.754 182.685 568C167.643 564.462 159.223 554.034 158.298 538.406C157.34 522.226 161.751 507.116 167.456 492.298C175.635 471.05 186.714 451.289 198.856 432.094C199.692 430.772 200.501 429.434 201.364 428.037C199.139 426.53 196.971 425.063 194.469 423.564C189.557 417.252 184.977 410.971 180.381 404.338C180.478 403.855 180.59 403.724 181.231 403.373C186.915 402.103 192.071 401.051 197.226 400C210.174 421.118 223.122 442.235 236.167 463.578Z" fill="#966DF9"/>
<path d="M298.115 513C305.883 514.474 313.35 516.082 321.167 517.858C318.582 520.009 315.647 521.991 312.392 524C305.661 522.545 299.251 521.062 292.167 519.424C294.352 516.989 296.083 515.061 298.115 513Z" fill="#CCD2D2"/>
<path d="M323.92 422.994C323.65 422.333 323.144 421.663 323.168 421.012C323.2 420.1 323.75 419.217 323.865 418.295C325.666 403.823 332.624 392.856 343.807 383.233C359.451 369.77 373.689 354.666 388.518 340.254C388.962 339.822 389.295 339.275 389.978 338.381C390.428 337.705 390.58 337.428 391.002 336.981C396.367 329.974 399.494 322.42 399.205 313.759C398.922 305.233 391.938 300.581 384.194 304.112C381.068 305.537 377.926 307.966 376.013 310.775C373.333 314.707 371.794 319.422 369.388 323.753C361.835 323.482 354.66 323.26 347.481 322.669C350.779 314.462 354.081 306.625 357.384 298.788C363.846 290.095 371.024 282.238 381.539 278.391C384 277.491 386.556 276.849 389.414 276C399.929 292.599 410.098 309.287 420.167 326.606C416.311 333.888 413.495 341.352 408.608 347.023C397.801 359.566 386.004 371.258 374.497 383.186C371.088 386.719 367.297 389.882 363.681 393.215C363.954 393.597 364.228 393.978 364.501 394.359C367.647 394.742 370.793 395.124 373.94 395.507C366.448 404.628 358.956 413.749 350.711 422.945C341.278 423.011 332.599 423.003 323.92 422.994Z" fill="#966DF9"/>
<path d="M325.167 171.73C319.972 178.526 315.004 185.089 309.748 191.417C277.213 230.588 244.612 269.706 212.035 308.842C202.347 320.481 192.665 332.125 182.421 344C179.296 343.989 176.731 343.744 174.167 343.5C188.091 326.672 201.987 309.821 215.947 293.023C238.991 265.293 262.085 237.604 285.143 209.884C296.221 196.567 307.264 183.221 318.318 169.884C319.397 168.582 320.437 167.248 322.241 165C323.637 167.954 324.449 169.671 325.167 171.73Z" fill="#88898B"/>
<path d="M175.167 344.013C177.628 343.941 180.162 344.186 183.09 344.466C193.857 361.659 204.231 378.817 214.93 396.479C223.419 410.428 231.582 423.872 239.745 437.316C253.496 460.15 267.246 482.984 281.167 506.094C280.144 508.29 278.951 510.21 277.218 513C275.265 510.136 273.741 508.112 272.434 505.954C240.75 453.636 209.086 401.307 177.444 348.963C176.564 347.508 175.968 345.879 175.167 344.013Z" fill="#FAFBFB"/>
<path d="M373.745 395C370.334 394.804 367.164 394.424 363.993 394.044C363.718 393.664 363.442 393.285 363.167 392.906C366.811 389.593 370.631 386.448 374.066 382.936C385.662 371.078 397.55 359.456 408.44 346.987C413.364 341.349 416.202 333.929 420.213 327.015C420.652 326.942 420.895 327.152 421.071 327.406C425.265 333.472 425.269 333.478 420.645 339.009C405.094 357.613 389.539 376.214 373.745 395Z" fill="#40474A"/>
<path d="M324.167 423.219C332.557 422.965 341.12 422.973 350.167 423.039C347.582 427.011 344.512 430.925 341.173 435C335.381 431.267 329.86 427.374 324.167 423.219Z" fill="#3F4144"/>
<path d="M526.167 364.552C519.983 379.826 503.066 394.86 484.891 393.686C480.682 393.414 476.435 393.781 472.218 393.577C469.161 393.43 467.823 394.55 467.077 397.562C464.051 409.774 460.657 421.894 457.607 434.1C456.808 437.299 455.57 439.077 451.968 438.527C450.286 438.271 448.515 438.329 446.813 438.508C437.949 439.438 429.743 438.055 422.73 432.111C422.285 431.733 421.633 431.591 421.065 431.37C420.94 431.321 420.764 431.403 420.394 431.455C420.138 431.834 419.538 432.319 419.505 432.839C419.223 437.318 416.388 437.75 412.673 437.696C409.917 437.656 407.147 438.523 404.302 439C403.181 438.633 401.572 437.67 399.95 437.646C389.153 437.487 378.353 437.546 367.554 437.486C365.854 437.477 364.155 437.218 362.167 436.808C365.201 432.26 368.525 427.98 372.565 423.493C379.811 423.346 386.346 423.557 392.866 423.336C394.163 423.292 396.194 421.82 396.541 420.621C398.942 412.322 400.987 403.922 403.448 395.665C407.588 398.158 411.425 400.539 415.254 403.277C413.56 410.143 411.875 416.655 410.055 423.688C418.553 423.688 426.184 423.688 434.099 423.688C437.998 408.998 441.925 394.201 445.823 379.516C451.685 379.516 456.992 379.527 462.299 379.514C478.455 379.472 489.933 371.063 499.364 359C508.188 360.795 517.012 362.589 526.167 364.552Z" fill="#3E4044"/>
<path d="M499.167 358.379C489.924 370.876 478.464 379.366 462.333 379.407C457.033 379.421 451.734 379.41 445.881 379.41C441.989 394.234 438.068 409.17 434.174 424C426.272 424 418.652 424 410.167 424C411.984 416.9 413.667 410.327 415.49 403.051C418.15 392.22 420.67 382.091 423.19 371.963C423.19 371.963 423.134 371.928 423.371 371.825C423.7 371.173 423.793 370.624 423.885 370.076C424.585 367.676 425.624 365.318 425.919 362.868C426.776 355.739 431.046 350.636 435.521 345.611C436.111 344.948 437.05 343.884 437.6 344.01C443.014 345.248 448.412 346.59 453.749 348.13C456.864 349.029 459.881 351.349 462.909 351.29C475.461 351.045 487.029 355.51 499.167 358.379Z" fill="#966DF9"/>
<path d="M403.167 395.316C401.028 403.925 399.003 412.567 396.625 421.104C396.281 422.337 394.27 423.851 392.986 423.897C386.528 424.124 380.056 423.907 373.167 423.896C373.508 422.476 374.071 420.838 375.067 419.562C380.581 412.499 386.297 405.602 391.731 398.476C393.627 395.989 395.648 394.594 399.462 395.105C401.192 395.178 402.179 395.247 403.167 395.316Z" fill="#966DF9"/>
<path d="M424.077 370C424.315 370.453 424.091 371.142 423.269 372C422.986 371.525 423.301 370.88 424.077 370Z" fill="#1C1D1D"/>
<path d="M392.167 479.862C391.796 480.049 391.482 480.006 391.167 479.963C391.274 479.642 391.381 479.321 391.488 479C391.733 479.211 391.978 479.422 392.167 479.862Z" fill="#38393A"/>
<path d="M239.959 437C231.605 423.934 223.417 410.521 215.167 396.789C223.536 394.726 231.966 392.981 241.431 391.021C244.563 379.003 248.093 365.487 251.609 351.967C257.879 327.852 264.184 303.746 270.349 279.605C271.057 276.833 272.248 275.935 275.087 276.004C287.213 276.298 299.345 276.316 311.473 276.517C319.022 276.642 325.901 278.588 331.569 284.92C333.875 290.452 336.876 295.343 337.572 300.544C340.01 318.757 334.739 335.501 325.635 351.012C315.458 368.352 300.791 378.189 279.921 376.603C277.598 376.426 275.221 376.764 272.928 376.442C269.859 376.012 268.974 377.464 268.306 380.167C265.315 392.271 261.97 404.288 259.047 416.408C258.133 420.198 256.75 421.823 252.533 421.448C246.894 420.946 241.178 421.324 235.196 421.324C237.42 423.419 239.468 425.348 241.516 427.276C241.052 430.402 240.587 433.527 239.959 437ZM305.858 338.15C305.858 338.15 305.819 338.109 306.295 337.676C308.07 331.599 309.846 325.523 311.886 318.751C311.367 308.233 308.02 304.928 297.588 304.651C295.258 304.589 292.902 304.357 290.608 304.63C289.506 304.762 287.83 305.699 287.588 306.592C283.848 320.387 280.301 334.235 276.515 348.819C281.068 348.819 285.075 348.919 289.075 348.797C296.137 348.583 301.472 345.37 305.427 338.999C305.552 338.716 305.676 338.432 305.858 338.15Z" fill="#966DF9"/>
<path d="M241.823 427.185C239.441 425.236 237.392 423.307 235.167 421.212C241.152 421.212 246.87 420.834 252.511 421.336C256.73 421.711 258.113 420.086 259.028 416.296C261.952 404.177 265.298 392.161 268.291 380.058C268.959 377.355 269.844 375.903 272.915 376.334C275.209 376.655 277.586 376.317 279.91 376.494C300.789 378.08 315.462 368.244 325.644 350.905C334.751 335.395 340.025 318.652 337.586 300.441C336.89 295.24 333.887 290.349 331.823 285C337.233 288.05 342.726 291.479 348.308 294.755C350.828 296.235 353.525 297.411 356.507 298.835C353.586 306.748 350.3 314.551 347.2 322.974C351.313 326.531 355.24 329.469 359.167 332.408C357.298 347.785 351.928 361.67 341.994 373.699C335.121 382.021 326.805 388.262 316.107 390.011C309.569 391.08 302.754 390.743 296.078 390.549C292.264 390.437 290.909 392.146 290.088 395.454C287.081 407.56 283.786 419.595 280.897 431.729C280.158 434.833 278.8 435.988 275.812 435.687C274.731 435.578 273.621 435.568 272.542 435.682C262.132 436.787 252.474 435.196 244.3 427.998C243.767 427.528 242.88 427.461 241.823 427.185Z" fill="#3E4044"/>
<path d="M359.508 332.123C355.23 329.144 351.29 326.199 347.167 323.003C354.148 322.972 361.312 323.194 369.167 323.604C376.628 328.14 383.397 332.486 390.167 336.833C390.015 337.109 389.863 337.384 389.484 337.751C387.541 337.812 385.815 337.636 384.115 337.776C375.416 338.491 367.085 337.719 359.508 332.123Z" fill="#55575A"/>
<path d="M390.985 337C383.971 332.821 377.224 328.473 370.167 323.984C371.872 319.471 373.404 314.765 376.07 310.839C377.974 308.036 381.1 305.611 384.211 304.188C391.917 300.663 398.866 305.307 399.149 313.818C399.435 322.464 396.324 330.005 390.985 337Z" fill="#3E4245"/>
<path d="M304.692 339.4C301.172 345.541 295.826 348.727 288.751 348.94C284.743 349.061 280.728 348.962 276.167 348.962C279.96 334.495 283.514 320.759 287.261 307.075C287.503 306.189 289.183 305.259 290.287 305.129C292.585 304.858 294.946 305.088 297.28 305.15C307.733 305.424 311.086 308.703 311.167 319.505C308.994 326.028 307.261 332.183 305.527 338.338C305.527 338.338 305.566 338.379 305.37 338.522C304.986 338.893 304.825 339.137 304.692 339.4Z" fill="#3E4245"/>
<path d="M306.167 338C307.586 331.824 309.231 325.424 311.167 319C309.769 325.242 308.081 331.51 306.167 338Z" fill="#161C25"/>
<path d="M305.219 339C305.027 338.781 305.376 338.47 306.149 338C306.242 338.174 305.971 338.53 305.219 339Z" fill="#161C25"/>
<g clip-path="url(#clip0_1702_25152)">
<path d="M142.08 170.363C172.44 166.636 182.476 143.553 164.497 118.807C146.518 94.0607 107.332 77.0219 76.9716 80.7496C46.6116 84.4773 36.575 107.56 54.5541 132.306C72.5333 157.052 111.72 174.091 142.08 170.363Z" fill="#26A17B"/>
<path fill-rule="evenodd" clip-rule="evenodd" d="M118.943 128.619L118.939 128.613C118.577 128.682 116.699 129.016 112.352 129.55C108.882 129.976 106.378 130.192 105.495 130.264L105.501 130.272C91.7952 131.434 80.4473 130.762 78.7992 128.494C77.1512 126.225 85.7462 123.108 98.7503 120.981L104.13 128.385C105.039 128.328 107.628 128.141 111.084 127.717C115.231 127.208 117.208 126.813 117.576 126.737L112.198 119.335C125.881 118.183 137.205 118.858 138.849 121.12C140.497 123.389 131.924 126.5 118.943 128.619ZM111.639 118.565L106.825 111.939L125.426 109.656L118.085 99.5516L67.4389 105.77L74.7799 115.874L93.3809 113.59L98.1928 120.213C83.4866 122.635 73.892 126.473 76.0162 129.397C78.1403 132.32 91.2813 133.364 106.812 132.076L122.238 153.309L135.682 151.658L120.251 130.42C134.934 128.001 144.503 124.169 142.381 121.248C140.259 118.327 127.145 117.281 111.639 118.565Z" fill="white"/>
</g>
<g clip-path="url(#clip1_1702_25152)">
<rect width="110.769" height="110.769" rx="55.3844" transform="matrix(0.99863 -0.052336 0.406737 0.913545 565 554.797)" fill="white"/>
<path d="M620.309 551.899C609.37 552.472 599.997 556 593.377 562.036C586.757 568.072 583.186 576.346 583.116 585.81C583.046 595.275 586.481 605.506 592.984 615.208C599.488 624.911 608.77 633.651 619.655 640.321C630.541 646.992 642.541 651.294 654.139 652.684C665.737 654.074 676.412 652.489 684.813 648.13C693.214 643.771 698.965 636.833 701.338 628.194C703.711 619.555 702.599 609.603 698.144 599.596C692.156 586.182 680.598 573.627 666.005 564.685C651.413 555.743 634.979 551.144 620.309 551.899ZM656.283 585.859L661.431 585.589C662.559 585.53 663.824 585.883 664.947 586.571C666.07 587.259 666.959 588.226 667.418 589.258C667.878 590.29 667.87 591.304 667.398 592.075C666.925 592.847 666.025 593.314 664.897 593.373L660.541 593.601C662.37 598.944 661.883 604.026 659.177 607.85C656.47 611.675 651.738 613.969 645.907 614.282L639.163 614.636L676.693 633.424C677.292 633.706 677.856 634.074 678.35 634.506C678.844 634.938 679.258 635.425 679.569 635.938C679.88 636.451 680.08 636.98 680.158 637.492C680.236 638.005 680.19 638.491 680.023 638.921C679.856 639.352 679.571 639.718 679.185 639.999C678.8 640.279 678.321 640.468 677.778 640.553C677.235 640.639 676.639 640.619 676.025 640.496C675.411 640.373 674.792 640.149 674.204 639.838L623.784 614.6C622.864 614.139 622.047 613.48 621.449 612.717C620.85 611.953 620.5 611.123 620.446 610.341C620.392 609.56 620.638 608.866 621.149 608.357C621.66 607.848 622.41 607.549 623.296 607.502L642.441 606.498C646.021 606.31 648.956 604.948 650.708 602.662C652.46 600.376 652.911 597.318 651.979 594.05L618.097 595.826C616.969 595.885 615.704 595.531 614.581 594.843C613.458 594.155 612.569 593.189 612.11 592.156C611.65 591.124 611.658 590.111 612.131 589.339C612.604 588.567 613.503 588.101 614.632 588.041L647.226 586.333C644.982 584.068 642.202 582.201 639.208 580.947C636.214 579.694 633.129 579.107 630.311 579.254L611.166 580.257C610.038 580.317 608.773 579.963 607.65 579.275C606.527 578.587 605.638 577.621 605.179 576.588C604.719 575.556 604.726 574.543 605.199 573.771C605.672 572.999 606.572 572.533 607.7 572.473L654.5 570.021C655.628 569.962 656.893 570.315 658.016 571.003C659.138 571.691 660.027 572.658 660.487 573.69C660.947 574.722 660.939 575.735 660.466 576.507C659.993 577.279 659.094 577.746 657.965 577.805L648.35 578.309C651.43 580.484 654.131 583.055 656.283 585.859Z" fill="#966DF9"/>
</g>
<defs>
<clipPath id="clip0_1702_25152">
<rect width="110.769" height="110.769" fill="white" transform="matrix(0.992546 -0.121869 0.587785 0.809017 22 87.4993)"/>
</clipPath>
<clipPath id="clip1_1702_25152">
<rect width="110.769" height="110.769" rx="55.3844" transform="matrix(0.99863 -0.052336 0.406737 0.913545 565 554.797)" fill="white"/>
</clipPath>
</defs>
</svg>
