<svg width="792" height="737" viewBox="0 0 792 737" fill="none" xmlns="http://www.w3.org/2000/svg">
<rect x="0.91333" width="790.845" height="737" rx="40.7182" fill="#F9F3FF"/>
<path fill-rule="evenodd" clip-rule="evenodd" d="M309.693 654.036C350.546 654.036 383.665 620.614 383.665 579.386C383.665 538.158 350.546 504.736 309.693 504.736C268.84 504.736 235.722 538.158 235.722 579.386C235.722 620.614 268.84 654.036 309.693 654.036Z" fill="#3F82D3"/>
<path d="M309.693 531.61V598.795L339.281 580.132L309.693 531.61Z" fill="#E6E6E6"/>
<path d="M309.693 531.61L280.104 580.132L309.693 598.795V531.61Z" fill="white"/>
<path d="M309.693 604.394L309.693 628.655L339.281 587.598L309.693 604.394Z" fill="#E6E6E6"/>
<path d="M309.693 628.655V604.394L280.104 587.598L309.693 628.655Z" fill="white"/>
<path opacity="0.1" d="M309.693 598.795L339.281 580.133L309.693 568.935V598.795Z" fill="#141414"/>
<path opacity="0.1" d="M280.104 580.133L309.693 598.795V568.935L280.104 580.133Z" fill="#393939"/>
<g clip-path="url(#clip0_1625_25391)">
<path d="M663.263 648.607C705.241 648.607 739.271 614.577 739.271 572.599C739.271 530.622 705.241 496.592 663.263 496.592C621.286 496.592 587.256 530.622 587.256 572.599C587.256 614.577 621.286 648.607 663.263 648.607Z" fill="#335DD2"/>
<path d="M713.523 543.463V601.735L663.058 630.872L612.593 601.735V543.463L663.058 514.327L713.523 543.463ZM630.943 554.057V591.14L663.058 609.681L695.172 591.14V554.057L663.058 535.516L630.943 554.057Z" fill="white"/>
</g>
<g clip-path="url(#clip1_1625_25391)">
<path d="M487.495 673.038C529.098 673.038 562.823 639.312 562.823 597.709C562.823 556.106 529.098 522.381 487.495 522.381C445.892 522.381 412.166 556.106 412.166 597.709C412.166 639.312 445.892 673.038 487.495 673.038Z" fill="#EF0027"/>
<path d="M515.425 569.052L447.479 556.547L483.236 646.527L533.061 585.822L515.425 569.052ZM514.333 574.56L524.728 584.442L496.301 589.588L514.333 574.56ZM490.124 588.557L460.162 563.708L509.135 572.719L490.124 588.557ZM487.991 592.954L483.104 633.349L456.763 567.046L487.991 592.954ZM492.511 595.096L523.994 589.4L487.883 633.387L492.511 595.096Z" fill="white"/>
</g>
<g clip-path="url(#clip2_1625_25391)">
<path d="M662.585 473.519C694.443 473.519 720.269 447.693 720.269 415.835C720.269 383.976 694.443 358.15 662.585 358.15C630.727 358.15 604.901 383.976 604.901 415.835C604.901 447.693 630.727 473.519 662.585 473.519Z" fill="#4BA2FF"/>
<path d="M680.225 412.326C683.019 415.985 684.532 420.493 684.521 425.131C684.525 429.837 682.969 434.407 680.105 438.099L679.865 438.4L679.809 437.996C679.752 437.663 679.686 437.333 679.611 437.004C678.226 430.686 673.747 425.253 666.338 420.85C661.346 417.901 658.476 414.345 657.72 410.308C657.316 407.79 657.521 405.21 658.319 402.792C658.88 400.907 659.756 399.129 660.908 397.542L663.801 393.868C663.918 393.72 664.067 393.601 664.235 393.52C664.403 393.438 664.587 393.396 664.774 393.396C664.96 393.396 665.144 393.438 665.313 393.52C665.481 393.601 665.629 393.72 665.747 393.868L680.225 412.326ZM684.779 408.652L665.485 384.032C665.4 383.923 665.292 383.835 665.168 383.775C665.045 383.714 664.91 383.683 664.774 383.683C664.637 383.683 664.502 383.714 664.379 383.775C664.256 383.835 664.148 383.923 664.063 384.032L644.761 408.671L644.702 408.732C641.007 413.522 639.005 419.442 639.017 425.535C639.021 440.339 650.554 452.357 664.774 452.357C678.994 452.357 690.523 440.339 690.523 425.535C690.536 419.442 688.533 413.522 684.839 408.732L684.779 408.652ZM649.379 412.246L651.104 410.045L651.164 410.449L651.303 411.418C652.433 417.538 656.414 422.628 663.09 426.565C668.89 430.018 672.258 433.978 673.231 438.32C673.628 440.136 673.706 441.914 673.53 443.471V443.57L673.448 443.608C670.754 444.982 667.786 445.695 664.774 445.691C653.877 445.691 645.023 436.481 645.023 425.131C645.023 420.266 646.644 415.783 649.379 412.246Z" fill="white"/>
</g>
<g clip-path="url(#clip3_1625_25391)">
<path d="M479.724 310.889C479.724 302.717 483.77 293.003 485.791 289.164C482.703 279.46 477.688 259.153 482.318 255.566C486.952 251.978 498.129 263.901 503.139 270.309C505.189 269.227 510.99 267.068 517.833 267.068C524.676 267.068 531.104 269.227 533.471 270.309C546.945 255.23 552.583 254.202 553.714 255.566C558.477 261.584 553.516 280.468 550.433 289.164C552.425 292.346 556.387 301.151 556.387 310.894C556.387 323.064 538.896 340.515 517.759 340.515C496.617 340.515 479.724 321.107 479.724 310.889Z" fill="#EB9A2E"/>
<path fill-rule="evenodd" clip-rule="evenodd" d="M487.006 284.094C485.193 277.982 482.125 264.918 484.289 261.543C486.463 258.168 495.154 266.617 499.225 271.262C496.878 273.14 491.152 278.327 487.006 284.094ZM549.509 284.094C551.317 277.982 554.391 264.918 552.222 261.543C550.048 258.168 541.361 266.617 537.285 271.262C539.632 273.14 545.369 278.327 549.509 284.094Z" fill="#E58014"/>
<path d="M504.153 292.534C502.12 292.903 500.075 293.035 498.016 292.929C497.636 292.92 497.273 292.771 496.995 292.512C496.717 292.252 496.544 291.9 496.509 291.521C496.312 289.021 497.26 285.681 500.096 285.814C503.501 285.972 504.988 288.492 505.507 290.562C505.739 291.496 505.087 292.361 504.153 292.534ZM532.069 292.539C534.49 292.983 536.723 293.018 538.211 292.934C538.59 292.924 538.953 292.775 539.231 292.515C539.509 292.256 539.682 291.904 539.718 291.526C539.91 289.026 538.962 285.686 536.126 285.819C532.726 285.977 531.239 288.497 530.72 290.567C530.488 291.501 531.135 292.371 532.069 292.544" fill="#FEFFF7"/>
<path d="M515.694 340.012C486.607 335.58 479.601 318.717 479.729 310.841C494.759 309.729 499.913 315.545 500.609 318.588C501.01 313.954 504.923 304.67 517.354 304.67C529.786 304.67 533.694 313.949 534.094 318.588C536.73 315.244 540.337 312.799 544.419 311.588C548.502 310.378 552.859 310.462 556.892 311.829C549.777 335.481 526.46 340.477 515.694 340.012Z" fill="#EAEAE8"/>
<path fill-rule="evenodd" clip-rule="evenodd" d="M521.879 309.138H513.81C513.543 309.14 513.278 309.195 513.031 309.299C512.784 309.403 512.56 309.555 512.372 309.746C512.184 309.937 512.035 310.163 511.934 310.411C511.834 310.66 511.783 310.925 511.785 311.193V315.176C511.903 316.46 513.094 318.931 516.839 319.346V323.299C516.595 323.533 516.402 323.816 516.271 324.129H511.444V324.178C510.935 323.707 510.373 323.298 509.769 322.958C509.68 322.911 509.58 322.891 509.481 322.901C509.381 322.911 509.287 322.95 509.209 323.013C509.132 323.077 509.074 323.161 509.045 323.257C509.015 323.352 509.014 323.455 509.042 323.551C509.06 323.617 509.091 323.679 509.133 323.732C509.176 323.786 509.229 323.83 509.29 323.862C509.611 324.04 510.11 324.356 510.535 324.727C510.727 324.897 510.905 325.082 511.068 325.28C511.2 325.464 511.272 325.603 511.286 325.695C511.305 325.8 511.348 325.889 511.414 325.962V328.17C511.414 328.452 511.641 328.684 511.918 328.684C511.985 328.684 512.051 328.67 512.112 328.644C512.174 328.617 512.23 328.579 512.277 328.532C512.323 328.484 512.36 328.428 512.385 328.366C512.41 328.304 512.423 328.237 512.422 328.17V325.152H523.272V328.165C523.272 328.452 523.5 328.684 523.776 328.684C523.844 328.685 523.91 328.671 523.973 328.645C524.035 328.619 524.091 328.58 524.137 328.531C524.185 328.484 524.223 328.428 524.248 328.366C524.274 328.304 524.286 328.237 524.285 328.17V325.7L524.3 325.611L524.31 325.591C524.345 325.529 524.386 325.471 524.433 325.418C524.608 325.231 524.796 325.058 524.997 324.9C525.448 324.546 525.92 324.22 526.41 323.921C526.495 323.868 526.563 323.792 526.606 323.701C526.648 323.611 526.664 323.509 526.65 323.41C526.637 323.311 526.595 323.218 526.529 323.142C526.464 323.066 526.378 323.01 526.281 322.982C526.217 322.964 526.15 322.959 526.084 322.968C526.017 322.976 525.954 322.998 525.896 323.032C525.364 323.353 524.852 323.708 524.364 324.094L524.325 324.124H519.26C519.158 323.93 519.025 323.755 518.865 323.605V319.366C522.749 319.02 523.85 316.485 523.905 315.176V311.193C523.907 310.925 523.856 310.66 523.755 310.411C523.654 310.163 523.506 309.937 523.318 309.746C523.13 309.555 522.906 309.403 522.659 309.299C522.412 309.195 522.147 309.14 521.879 309.138ZM514.463 326.629L515.53 327.938L516.35 327.162L517.832 328.595L519.364 327.162L520.081 327.938L521.069 326.624L514.463 326.629Z" fill="#000001"/>
<path d="M495.836 295.921C494.344 295.338 494.33 296.711 494.507 297.462V298.609C494.508 299.644 494.822 300.656 495.407 301.51C495.993 302.364 496.823 303.022 497.788 303.396C502.299 305.091 509.923 307.438 509.088 304.978C507.986 301.741 497.694 296.657 495.836 295.921ZM539.984 295.921C541.466 295.338 541.486 296.711 541.308 297.462V298.609C541.307 299.644 540.994 300.656 540.408 301.51C539.823 302.364 538.993 303.022 538.027 303.396C533.516 305.091 525.892 307.438 526.727 304.978C527.829 301.741 538.121 296.657 539.984 295.921Z" fill="black"/>
<path fill-rule="evenodd" clip-rule="evenodd" d="M503.12 267.952C498.742 262.532 493.322 256.459 486.627 253.801C470.994 247.59 482.071 283.358 483.712 288.516C481.562 292.676 477.506 302.42 477.506 310.651C477.506 328.468 503.243 341.542 518.061 341.542C533.536 341.542 558.567 328.893 558.567 310.651C558.567 300.992 554.896 292.474 552.737 288.842C556.062 279.375 562.198 262.136 555.568 253.633C551.101 248.287 535.26 265.467 533.333 267.581C530.443 266.395 524.4 264.982 517.829 264.982C511.376 264.982 505.768 266.751 503.12 267.952ZM482.284 255.688C481.913 255.97 481.572 256.479 481.3 257.289C481.006 258.29 480.84 259.325 480.806 260.367C480.673 262.838 480.955 265.961 481.498 269.33C482.56 276.05 484.611 283.56 486.167 288.422L486.306 288.842L486.098 289.227C484.067 293.052 480.045 302.667 480.045 310.651C480.045 312.964 481.019 315.928 482.921 319.13C484.814 322.312 487.566 325.642 490.985 328.671C497.838 334.729 507.601 338.78 518.061 338.78C528.551 338.78 537.859 335.198 544.851 329.392C551.887 323.547 556.077 316.343 556.077 310.651C556.077 301.076 552.119 292.385 550.172 289.292L549.905 288.867L550.073 288.392C551.625 284.049 553.651 277.162 554.688 270.63C555.207 267.364 555.474 264.221 555.321 261.548C555.163 258.865 554.599 256.805 553.601 255.54C553.572 255.52 553.374 255.392 552.741 255.491C552.005 255.599 550.879 256.005 549.288 256.968C546.116 258.88 541.333 262.858 534.495 270.427L534 270.971L533.333 270.674C531.031 269.627 524.618 267.492 517.829 267.492C512.621 267.492 507.235 268.604 502.601 271.035C499.266 266.81 495.649 262.749 491.489 259.32C489.661 257.808 484.917 253.668 482.284 255.688Z" fill="black"/>
</g>
<g clip-path="url(#clip4_1625_25391)">
<path d="M313.087 464.017C346.819 464.017 374.164 436.672 374.164 402.94C374.164 369.208 346.819 341.863 313.087 341.863C279.355 341.863 252.01 369.208 252.01 402.94C252.01 436.672 279.355 464.017 313.087 464.017Z" fill="#F3BA2F"/>
<path d="M298.26 396.847L313.087 382.021L327.921 396.855L336.548 388.228L313.087 364.766L289.633 388.22L298.26 396.847ZM274.914 402.94L283.541 394.313L292.168 402.94L283.541 411.567L274.914 402.94ZM298.26 409.032L313.087 423.859L327.921 409.025L336.548 417.648L313.087 441.113L289.633 417.659L289.622 417.648L298.26 409.032ZM334.006 402.94L342.633 394.313L351.26 402.94L342.633 411.567L334.006 402.94ZM321.836 402.932H321.844V402.94L313.087 411.697L304.341 402.955L304.326 402.94L304.341 402.928L305.872 401.394L306.617 400.649L313.087 394.183L321.836 402.932Z" fill="white"/>
</g>
<g clip-path="url(#clip5_1625_25391)">
<path d="M219.434 307.931C250.168 307.931 275.083 283.016 275.083 252.283C275.083 221.549 250.168 196.635 219.434 196.635C188.701 196.635 163.786 221.549 163.786 252.283C163.786 283.016 188.701 307.931 219.434 307.931Z" fill="#23292F"/>
<path d="M244.024 224.458H254.076L233.155 245.177C229.498 248.781 224.57 250.802 219.435 250.802C214.3 250.802 209.371 248.781 205.714 245.177L184.776 224.458H194.845L210.74 240.189C213.054 242.474 216.176 243.755 219.428 243.755C222.68 243.755 225.801 242.474 228.116 240.189L244.024 224.458ZM194.723 282.065H184.655L205.714 261.221C209.371 257.617 214.3 255.596 219.435 255.596C224.57 255.596 229.498 257.617 233.155 261.221L254.215 282.061H244.146L228.13 266.195C225.815 263.91 222.694 262.629 219.442 262.629C216.189 262.629 213.068 263.91 210.754 266.195L194.72 282.065H194.723Z" fill="white"/>
</g>
<path d="M511.24 121.705C511.24 126.786 504.239 130.927 495.614 130.927C486.994 130.927 479.983 126.786 479.983 121.705C479.983 116.614 487.019 112.483 495.614 112.483C504.21 112.483 511.24 116.619 511.24 121.705ZM511.24 192.842C511.24 197.928 504.239 202.064 495.614 202.064C486.994 202.064 479.983 197.928 479.983 192.842C479.983 187.761 487.019 183.62 495.614 183.62C504.21 183.62 511.24 187.761 511.24 192.842ZM473.085 144.488C477.513 136.775 477.543 128.414 473.188 125.891C468.814 123.333 461.724 127.553 457.301 135.272C452.873 142.985 452.873 151.341 457.193 153.869C461.572 156.403 468.657 152.202 473.085 144.488ZM533.986 160.648C538.36 163.151 538.336 171.347 533.927 178.932C529.504 186.516 522.394 190.627 518.04 188.129C513.641 185.626 513.666 177.429 518.065 169.84C522.493 162.255 529.607 158.144 533.986 160.648ZM473.213 188.179C477.592 185.68 477.567 177.484 473.134 169.899C468.735 162.315 461.621 158.204 457.247 160.702C452.848 163.236 452.868 171.402 457.301 178.987C461.705 186.576 468.814 190.717 473.193 188.208L473.213 188.179ZM533.986 135.301C538.409 143.015 538.409 151.346 534.065 153.874C529.711 156.432 522.601 152.247 518.173 144.498C513.794 136.78 513.745 128.454 518.089 125.92C522.468 123.362 529.553 127.558 533.981 135.301" fill="#E6007A"/>
<path d="M417.025 227.112C417.175 224.444 417.539 222.686 418.267 221.073C418.556 220.439 418.832 219.918 418.87 219.918C418.828 220.277 418.735 220.628 418.594 220.96C418.06 222.523 417.972 224.664 418.343 227.143C418.801 230.294 419.065 230.753 422.411 234.155C423.98 235.756 425.8 237.764 426.466 238.631L427.665 240.2L426.466 239.083C424.997 237.702 421.613 235.028 420.866 234.645C420.364 234.387 420.289 234.394 419.981 234.695C419.699 234.977 419.636 235.404 419.598 237.407C419.535 240.533 419.109 242.542 418.079 244.55C417.514 245.63 417.426 245.404 417.935 244.174C418.311 243.263 418.349 242.855 418.349 239.836C418.343 233.753 417.615 232.291 413.371 229.792C412.092 229.046 410.776 228.365 409.429 227.752C408.765 227.486 408.121 227.174 407.502 226.817C407.627 226.697 411.77 227.903 413.434 228.543C415.913 229.491 416.321 229.616 416.623 229.503C416.824 229.422 416.924 228.838 417.025 227.118" fill="#F50DB4"/>
<path d="M364.614 218.274C363.138 218.042 363.076 218.023 363.772 217.91C365.097 217.709 368.229 217.985 370.389 218.494C375.429 219.686 380.018 222.744 384.915 228.161L386.214 229.605L388.078 229.303C395.919 228.048 403.891 229.052 410.564 232.116C412.397 232.957 415.291 234.633 415.649 235.066C415.768 235.204 415.981 236.089 416.12 237.031C416.622 240.295 416.371 242.806 415.366 244.67C414.82 245.694 414.789 246.014 415.153 246.886C415.448 247.577 416.264 248.092 417.074 248.092C418.731 248.092 420.52 245.424 421.342 241.72L421.675 240.245L422.322 240.979C425.893 244.997 428.693 250.483 429.177 254.388L429.302 255.405L428.699 254.476C427.843 253.06 426.686 251.849 425.31 250.929C422.912 249.353 420.376 248.814 413.671 248.462C407.62 248.148 404.193 247.633 400.796 246.529C395.015 244.658 392.096 242.159 385.229 233.195C382.178 229.216 380.294 227.012 378.418 225.242C374.161 221.212 369.968 219.096 364.607 218.274M367.47 237.546C364.482 233.459 362.636 227.188 363.032 222.499L363.157 221.042L363.835 221.168C365.116 221.4 367.319 222.216 368.349 222.838C371.173 224.545 372.404 226.792 373.647 232.574C374.011 234.269 374.494 236.183 374.714 236.83C375.065 237.872 376.409 240.314 377.495 241.896C378.279 243.032 377.758 243.578 376.026 243.421C373.377 243.183 369.786 240.722 367.47 237.546ZM413.395 267.991C399.434 262.404 394.513 257.545 394.513 249.36C394.513 248.154 394.557 247.163 394.607 247.163C394.657 247.163 395.197 247.564 395.806 248.054C398.637 250.314 401.807 251.274 410.583 252.549C415.749 253.302 418.656 253.904 421.336 254.79C429.861 257.596 435.128 263.302 436.389 271.073C436.753 273.333 436.54 277.564 435.95 279.792C435.479 281.55 434.054 284.733 433.671 284.852C433.571 284.89 433.464 284.488 433.439 283.942C433.295 281.023 431.813 278.185 429.327 276.057C426.496 273.641 422.692 271.713 413.395 267.991ZM403.596 270.314C403.429 269.322 403.203 268.341 402.918 267.376L402.56 266.321L403.226 267.056C404.142 268.079 404.858 269.385 405.479 271.13C405.944 272.46 405.994 272.856 405.994 275.015C405.994 277.137 405.931 277.583 405.498 278.782C404.82 280.665 403.973 282.002 402.548 283.44C400.005 286.02 396.722 287.451 391.996 288.041C391.173 288.148 388.775 288.317 386.666 288.43C381.355 288.7 377.859 289.271 374.72 290.37C374.437 290.496 374.132 290.568 373.822 290.583C373.697 290.458 375.831 289.19 377.601 288.342C380.094 287.15 382.573 286.497 388.122 285.58C390.872 285.122 393.703 284.576 394.425 284.35C401.217 282.278 404.714 276.93 403.59 270.314" fill="#F50DB4"/>
<path d="M409.994 281.618C408.142 277.651 407.715 273.821 408.732 270.249C408.839 269.873 409.014 269.559 409.115 269.559C409.463 269.684 409.791 269.859 410.088 270.08C410.948 270.651 412.662 271.618 417.225 274.091C422.925 277.18 426.177 279.578 428.386 282.315C430.32 284.7 431.519 287.431 432.09 290.758C432.423 292.641 432.228 297.173 431.745 299.069C430.213 305.051 426.648 309.747 421.576 312.49C421.096 312.765 420.599 313.009 420.088 313.218C420.012 313.218 420.282 312.534 420.69 311.699C422.398 308.146 422.592 304.687 421.299 300.839C420.508 298.485 418.895 295.616 415.637 290.758C411.852 285.108 410.929 283.601 409.994 281.618ZM357.559 303.011C362.737 298.661 369.184 295.572 375.054 294.625C377.584 294.217 381.802 294.374 384.143 294.97C387.897 295.93 391.262 298.071 393.007 300.62C394.715 303.118 395.449 305.29 396.209 310.123C396.51 312.032 396.836 313.946 396.937 314.38C397.508 316.884 398.625 318.887 400.013 319.891C402.203 321.492 405.976 321.586 409.692 320.142C410.081 319.965 410.49 319.839 410.91 319.766C411.048 319.904 409.178 321.147 407.853 321.806C406.077 322.685 404.664 323.03 402.787 323.03C399.385 323.03 396.56 321.31 394.2 317.794C393.735 317.104 392.693 315.032 391.877 313.193C389.391 307.543 388.167 305.83 385.273 303.947C382.762 302.308 379.511 302.013 377.075 303.2C373.867 304.769 372.97 308.843 375.267 311.423C376.177 312.452 377.879 313.338 379.272 313.507C379.878 313.589 380.495 313.54 381.08 313.362C381.665 313.185 382.206 312.884 382.665 312.48C383.124 312.076 383.49 311.578 383.74 311.02C383.99 310.462 384.117 309.856 384.112 309.245C384.112 307.55 383.459 306.577 381.808 305.836C379.548 304.825 377.125 306.006 377.138 308.115C377.138 309.012 377.54 309.577 378.444 309.985C379.021 310.249 379.04 310.268 378.569 310.174C376.498 309.747 376.008 307.261 377.671 305.616C379.674 303.639 383.804 304.511 385.223 307.211C385.819 308.341 385.889 310.601 385.367 311.963C384.206 315.02 380.81 316.621 377.37 315.748C375.029 315.152 374.081 314.511 371.256 311.617C366.347 306.596 364.445 305.616 357.37 304.524L356.014 304.311L357.559 303.011Z" fill="#F50DB4"/>
<path fill-rule="evenodd" clip-rule="evenodd" d="M334.532 213.044C350.916 232.818 362.203 240.979 363.458 242.711C364.494 244.13 364.105 245.411 362.328 246.415C361.343 246.974 359.315 247.539 358.298 247.539C357.149 247.539 356.754 247.099 356.754 247.099C356.088 246.472 355.718 246.578 352.297 240.539C349.388 236.016 346.444 231.515 343.465 227.037C343.214 226.798 343.22 226.805 351.814 242.096C353.195 245.285 352.09 246.453 352.09 246.905C352.09 247.828 351.839 248.317 350.69 249.585C348.782 251.707 347.928 254.086 347.313 259.008C346.622 264.532 344.676 268.43 339.296 275.109C336.145 279.014 335.63 279.729 334.84 281.305C333.835 283.289 333.559 284.4 333.446 286.904C333.327 289.553 333.559 291.267 334.375 293.797C335.084 296.013 335.825 297.475 337.727 300.401C339.366 302.93 340.313 304.807 340.313 305.542C340.313 306.126 340.426 306.126 342.969 305.554C349.045 304.192 353.986 301.788 356.76 298.844C358.48 297.023 358.882 296.019 358.894 293.521C358.907 291.889 358.851 291.543 358.405 290.602C357.683 289.076 356.365 287.802 353.465 285.831C349.667 283.251 348.047 281.167 347.595 278.311C347.231 275.963 347.658 274.306 349.761 269.924C351.933 265.392 352.473 263.458 352.837 258.888C353.075 255.938 353.402 254.77 354.249 253.835C355.141 252.862 355.944 252.529 358.141 252.234C361.732 251.745 364.017 250.822 365.9 249.096C367.532 247.608 368.21 246.164 368.317 243.998L368.392 242.36L367.482 241.299C364.193 237.476 332.329 210.038 332.121 210.038C332.077 210.038 333.163 211.394 334.532 213.044ZM342.165 289.905C342.527 289.271 342.636 288.524 342.469 287.814C342.303 287.103 341.873 286.482 341.268 286.076C340.087 285.297 338.254 285.661 338.254 286.678C338.254 286.992 338.43 287.212 338.819 287.413C339.472 287.745 339.516 288.122 339.008 288.894C338.48 289.673 338.524 290.357 339.121 290.821C340.087 291.575 341.45 291.16 342.165 289.905ZM370.658 253.094C368.976 253.609 367.331 255.385 366.829 257.25C366.515 258.38 366.697 260.376 367.162 260.991C367.909 261.989 368.631 262.247 370.589 262.234C374.431 262.209 377.764 260.571 378.154 258.53C378.467 256.848 377.005 254.525 374.99 253.502C373.948 252.975 371.725 252.768 370.658 253.094ZM375.147 256.584C375.737 255.75 375.479 254.846 374.475 254.23C372.554 253.069 369.654 254.03 369.654 255.831C369.654 256.729 371.167 257.708 372.554 257.708C373.477 257.708 374.739 257.162 375.147 256.578" fill="#F50DB4"/>
<path d="M188.114 372.633H137.393C130.689 372.615 124.245 375.198 119.442 379.829C114.64 384.459 111.861 390.768 111.701 397.404C111.701 397.76 111.986 398.071 112.375 398.071H163.096C177.022 398.128 188.428 387.1 188.788 373.273C188.785 373.097 188.714 372.93 188.589 372.806C188.465 372.681 188.297 372.61 188.12 372.605L188.114 372.633ZM213.812 334.398H137.404C130.699 334.381 124.255 336.969 119.456 341.604C114.657 346.24 111.884 352.554 111.735 359.191C111.735 359.553 112.015 359.858 112.38 359.858H188.811C202.736 359.915 214.143 348.898 214.509 335.065C214.506 334.89 214.434 334.723 214.31 334.599C214.185 334.474 214.017 334.402 213.84 334.398H213.812ZM124.564 436.193C126.256 436.191 127.931 435.859 129.493 435.216C131.055 434.572 132.474 433.631 133.669 432.444C134.863 431.258 135.81 429.85 136.455 428.301C137.1 426.753 137.43 425.093 137.427 423.418C137.429 421.743 137.098 420.085 136.453 418.537C135.808 416.989 134.861 415.581 133.667 414.396C132.472 413.21 131.053 412.269 129.492 411.626C127.93 410.983 126.255 410.651 124.564 410.648C121.149 410.653 117.875 412 115.463 414.394C113.051 416.787 111.698 420.031 111.701 423.412C111.697 425.088 112.027 426.748 112.671 428.298C113.316 429.847 114.262 431.255 115.457 432.442C116.652 433.629 118.071 434.572 119.633 435.215C121.196 435.859 122.871 436.191 124.564 436.193Z" fill="#E62058"/>
<path d="M613.647 236.318V281.808C613.647 284.71 615.227 287.398 617.773 288.849L657.777 311.6C659.036 312.312 660.457 312.686 661.903 312.686C663.349 312.686 664.771 312.312 666.029 311.6L706.02 288.842C708.573 287.398 710.146 284.716 710.146 281.815V236.311C710.146 233.41 708.573 230.722 706.02 229.278L666.029 206.526C664.771 205.814 663.349 205.44 661.903 205.44C660.457 205.44 659.036 205.814 657.777 206.526L617.773 229.284C616.523 229.985 615.482 231.005 614.758 232.242C614.034 233.478 613.646 234.885 613.647 236.318Z" fill="#213147"/>
<path d="M670.626 267.889L664.921 283.297C664.766 283.724 664.766 284.192 664.921 284.619L674.74 311.129L686.087 304.676L672.464 267.889C672.394 267.701 672.269 267.54 672.105 267.425C671.94 267.311 671.745 267.25 671.545 267.25C671.345 267.25 671.15 267.311 670.986 267.425C670.821 267.54 670.696 267.701 670.626 267.889ZM682.064 241.978C681.994 241.791 681.869 241.629 681.704 241.515C681.54 241.4 681.345 241.339 681.145 241.339C680.945 241.339 680.75 241.4 680.585 241.515C680.421 241.629 680.296 241.791 680.226 241.978L674.52 257.387C674.365 257.814 674.365 258.281 674.52 258.708L690.599 302.11L701.953 295.656L682.064 241.978Z" fill="#12AAFF"/>
<path d="M661.892 208.234C662.175 208.245 662.452 208.317 662.704 208.447L705.996 233.062C706.24 233.201 706.443 233.402 706.586 233.644C706.728 233.886 706.805 234.161 706.808 234.442V283.665C706.808 284.239 706.499 284.761 705.996 285.044L662.704 309.666C662.456 309.805 662.176 309.876 661.892 309.872C661.611 309.863 661.336 309.792 661.086 309.666L617.794 285.07C617.549 284.93 617.345 284.729 617.203 284.486C617.06 284.242 616.984 283.966 616.982 283.684V234.454C616.982 233.881 617.291 233.358 617.794 233.068L661.086 208.453C661.332 208.314 661.609 208.238 661.892 208.234ZM661.892 201.046C660.357 201.046 658.81 201.433 657.43 202.226L614.151 226.834C612.799 227.595 611.673 228.702 610.888 230.04C610.103 231.379 609.687 232.902 609.684 234.454V283.678C609.684 286.817 611.386 289.725 614.151 291.292L657.437 315.913C658.8 316.682 660.339 317.087 661.905 317.087C663.47 317.087 665.009 316.682 666.373 315.913L709.658 291.298C711.011 290.537 712.137 289.43 712.922 288.092C713.707 286.753 714.122 285.23 714.126 283.678V234.454C714.122 232.902 713.707 231.379 712.922 230.04C712.137 228.702 711.011 227.595 709.658 226.834L666.36 202.226C664.998 201.451 663.458 201.045 661.892 201.046Z" fill="#9DCCED"/>
<path d="M633.273 302.167L637.251 291.426L645.271 297.989L637.773 304.733L633.273 302.167Z" fill="#213147"/>
<path d="M658.248 230.928H647.275C646.875 230.924 646.483 231.044 646.154 231.271C645.825 231.499 645.575 231.822 645.437 232.198L621.912 295.715L633.265 302.168L659.17 232.224C659.222 232.077 659.237 231.92 659.215 231.766C659.194 231.612 659.135 231.466 659.045 231.339C658.954 231.213 658.834 231.11 658.696 231.039C658.557 230.969 658.403 230.926 658.248 230.928ZM677.453 230.928H666.474C666.075 230.925 665.685 231.046 665.357 231.273C665.03 231.5 664.78 231.823 664.643 232.198L637.778 304.728L649.132 311.175L678.369 232.224C678.421 232.078 678.436 231.921 678.415 231.768C678.394 231.614 678.335 231.468 678.246 231.342C678.156 231.215 678.037 231.112 677.899 231.041C677.761 230.971 677.608 230.927 677.453 230.928Z" fill="white"/>
<g clip-path="url(#clip6_1625_25391)">
<path d="M125.781 639.106C166.26 639.106 199.074 605.988 199.074 565.134C199.074 524.281 166.26 491.163 125.781 491.163C85.3026 491.163 52.4883 524.281 52.4883 565.134C52.4883 605.988 85.3026 639.106 125.781 639.106Z" fill="#E84142"/>
<path fill-rule="evenodd" clip-rule="evenodd" d="M105.249 596.341H91.3786C88.4652 596.341 87.0269 596.341 86.1473 595.772C85.6839 595.467 85.2982 595.056 85.0213 594.572C84.7443 594.089 84.584 593.546 84.5532 592.989C84.4983 591.944 85.2174 590.663 86.6604 588.111L120.888 527.117C122.345 524.528 123.087 523.234 124.012 522.753C124.508 522.499 125.055 522.366 125.611 522.366C126.167 522.366 126.714 522.499 127.21 522.753C128.14 523.234 128.877 524.528 130.334 527.117L137.37 539.535L137.407 539.6C138.978 542.374 139.775 543.789 140.123 545.268C140.512 546.887 140.512 548.577 140.123 550.196C139.775 551.69 138.982 553.109 137.388 555.929L119.404 588.06L119.358 588.139C117.773 590.941 116.976 592.36 115.858 593.433C114.654 594.593 113.194 595.448 111.598 595.929C110.137 596.341 108.511 596.341 105.249 596.341ZM140.26 596.341H160.123C163.054 596.341 164.529 596.341 165.409 595.758C165.875 595.451 166.263 595.036 166.54 594.548C166.817 594.06 166.976 593.513 167.003 592.952C167.053 591.939 166.353 590.714 164.974 588.305L164.827 588.056L154.878 570.848L154.763 570.654C153.366 568.264 152.656 567.057 151.754 566.59C151.262 566.336 150.718 566.204 150.166 566.204C149.614 566.204 149.07 566.336 148.579 566.59C147.663 567.071 146.93 568.333 145.473 570.867L135.556 588.074L135.524 588.134C134.072 590.668 133.343 591.93 133.398 592.97C133.43 593.53 133.59 594.075 133.867 594.561C134.144 595.048 134.529 595.462 134.992 595.772C135.854 596.341 137.329 596.341 140.26 596.341Z" fill="white"/>
</g>
<path d="M337.448 107.576L292.632 178.94C292.086 179.807 291.328 180.52 290.431 181.014C289.533 181.508 288.524 181.765 287.499 181.761C286.475 181.758 285.468 181.494 284.573 180.994C283.679 180.495 282.926 179.776 282.385 178.905L238.444 107.541C237.211 105.544 236.562 103.241 236.57 100.893C236.623 97.4246 238.051 94.1193 240.54 91.7039C243.03 89.2885 246.377 87.9607 249.845 88.0126H326.167C333.461 88.0069 339.384 93.753 339.384 100.859C339.384 103.218 338.721 105.548 337.448 107.576ZM249.239 105.177L281.928 155.59V100.105H252.655C249.274 100.105 247.76 102.344 249.239 105.188M294.02 155.601L326.721 105.177C328.234 102.338 326.686 100.093 323.299 100.093H294.032L294.02 155.601Z" fill="#0088CC"/>
<g clip-path="url(#clip7_1625_25391)">
<path d="M484.782 508.808C522.637 508.808 553.324 478.12 553.324 440.266C553.324 402.411 522.637 371.723 484.782 371.723C446.927 371.723 416.239 402.411 416.239 440.266C416.239 478.12 446.927 508.808 484.782 508.808Z" fill="#F7931A"/>
<path d="M515.579 431.783C516.924 422.804 510.082 417.976 500.735 414.755L503.768 402.589L496.365 400.747L493.409 412.592C491.465 412.103 489.468 411.649 487.476 411.195L490.454 399.273L483.051 397.427L480.018 409.589C478.404 409.226 476.828 408.855 475.289 408.475L475.297 408.436L465.084 405.887L463.114 413.795C463.114 413.795 468.61 415.055 468.494 415.132C471.493 415.882 472.033 417.865 471.943 419.442L468.49 433.3C468.699 433.349 468.956 433.43 469.261 433.544L468.477 433.351L463.636 452.766C463.268 453.674 462.338 455.041 460.239 454.522C460.316 454.63 454.859 453.182 454.859 453.182L451.183 461.655L460.822 464.058C462.613 464.508 464.369 464.979 466.095 465.421L463.032 477.724L470.431 479.566L473.464 467.4C475.483 467.942 477.451 468.452 479.367 468.929L476.342 481.044L483.745 482.886L486.808 470.608C499.437 472.999 508.93 472.035 512.927 460.614C516.148 451.421 512.768 446.113 506.124 442.656C510.965 441.542 514.606 438.359 515.579 431.783ZM498.657 455.508C496.374 464.705 480.888 459.732 475.867 458.485L479.937 442.185C484.957 443.44 501.052 445.92 498.657 455.508ZM500.949 431.651C498.863 440.017 485.977 435.763 481.8 434.722L485.484 419.943C489.661 420.984 503.125 422.924 500.949 431.651Z" fill="white"/>
</g>
<defs>
<clipPath id="clip0_1625_25391">
<rect width="152.015" height="152.015" fill="white" transform="translate(587.256 496.592)"/>
</clipPath>
<clipPath id="clip1_1625_25391">
<rect width="150.657" height="150.657" fill="white" transform="translate(412.167 522.38)"/>
</clipPath>
<clipPath id="clip2_1625_25391">
<rect width="115.368" height="115.368" fill="white" transform="translate(604.9 358.15)"/>
</clipPath>
<clipPath id="clip3_1625_25391">
<rect width="89.5801" height="89.5801" fill="white" transform="translate(473.245 252.283)"/>
</clipPath>
<clipPath id="clip4_1625_25391">
<rect width="122.155" height="122.155" fill="white" transform="translate(252.009 341.863)"/>
</clipPath>
<clipPath id="clip5_1625_25391">
<rect width="111.297" height="111.297" fill="white" transform="translate(163.786 196.635)"/>
</clipPath>
<clipPath id="clip6_1625_25391">
<rect width="147.264" height="147.264" fill="white" transform="translate(52.4897 491.163)"/>
</clipPath>
<clipPath id="clip7_1625_25391">
<rect width="137.085" height="137.085" fill="white" transform="translate(416.239 371.723)"/>
</clipPath>
</defs>
</svg>
